<svg xmlns="http://www.w3.org/2000/svg" xml:space="preserve" id="svg3476" x="0" y="0" version="1.1" viewBox="0 0 25 25"><style>.st2{fill:#ebebeb}</style><path id="polygon2989" d="m23.1.5-1.9 21.6-8.7 2.4-8.7-2.4L1.9.5z" style="fill:#264de4"/><path id="polygon2991" d="m19.5 20.7 1.7-18.4h-8.7v20.4z" style="fill:#2965f1"/><path id="polygon2993" d="m6.3 10.3.3 2.6h5.9v-2.6z" class="st2"/><path id="polygon2995" d="M12.5 4.9H5.9l.2 2.7h6.4z" class="st2"/><path id="polygon2997" d="M12.5 19.9v-2.7l-3-.8-.2-2.1H6.7l.4 4.1z" class="st2"/><path id="polygon3005" d="m15.8 12.9-.4 3.5-2.9.8v2.7l5.4-1.5.1-.4.6-7v-.7l.5-5.4h-6.6v2.7h3.7l-.2 2.7h-3.5v2.6z" style="fill:#fff"/></svg>