<svg xmlns="http://www.w3.org/2000/svg" xml:space="preserve" id="Layer_1" x="0" y="0" version="1.1" viewBox="0 0 25 25"><style>.st1{fill:#1a4674}.st3{fill:#fff}</style><path d="M23.2 7.6c0-.4-.1-.8-.3-1.1s-.4-.6-.8-.8c-2.8-1.6-5.7-3.3-8.5-4.9-.8-.4-1.5-.4-2.3 0-1.1.7-6.8 3.9-8.5 4.9-.7.4-1 1-1 1.8v9.9c0 .4.1.7.2 1 .2.3.4.6.8.8 1.7 1 7.4 4.2 8.5 4.9.8.4 1.5.5 2.3 0 2.8-1.6 5.7-3.3 8.5-4.9.4-.2.6-.5.8-.8s.2-.7.2-1c.1 0 .1-6.5.1-9.8" style="fill:#5c8dbc"/><path d="M12.5 12.5 2 18.5c.2.3.4.6.8.8 1.7 1 7.4 4.2 8.5 4.9.8.4 1.5.5 2.3 0 2.8-1.6 5.7-3.3 8.5-4.9.4-.2.6-.5.8-.8z" class="st1"/><path d="M9.4 14.3c.6 1.1 1.8 1.8 3.1 1.8s2.5-.7 3.1-1.8l-3-1.8z" class="st1"/><path d="M23.2 7.6c0-.4-.1-.8-.3-1.1l-10.4 6 10.4 6c.2-.3.2-.7.2-1 .1-.1.1-6.6.1-9.9" style="fill:#1b598e"/><path d="M22.6 12.9h-.8v.8H21v-.8h-.8v-.8h.8v-.8h.8v.8h.8zm-3 0h-.8v.8H18v-.8h-.8v-.8h.8v-.8h.8v.8h.8z" class="st3"/><path d="M15.6 14.2c-.6 1.1-1.8 1.8-3.1 1.8s-2.5-.7-3.1-1.8c-.3-.5-.4-1.1-.4-1.7 0-2 1.6-3.5 3.5-3.5 1.3 0 2.4.7 3.1 1.8l3-1.8c-1.2-2.1-3.5-3.5-6.1-3.5-3.9 0-7.1 3.2-7.1 7.1 0 1.3.3 2.5.9 3.5 1.2 2.1 3.5 3.6 6.2 3.6 2.6 0 4.9-1.4 6.2-3.6z" class="st3"/></svg>