<svg xmlns="http://www.w3.org/2000/svg" data-name="Layer 1" viewBox="0 0 25 25"><path d="M12.5.5C5.87.5.5 5.87.5 12.5s5.37 12 12 12 12-5.37 12-12-5.37-12-12-12m5.24 4.44c1.22-.04 2.14.52 2.21 1.37.01.37-.2 1.09-.95 1.12-.56.02-.95-.32-.96-.82-.01-.19.31-.8.31-.91-.01-.32-.49-.34-.62-.32-1.8.06-2.28 2.48-2.66 4.46l-.17 1.04c1.01.16 1.75-.04 2.16-.3.58-.37-.17-.76-.07-1.19.1-.44.49-.65.8-.66.44-.01.76.44.74.91-.04.77-1.03 1.82-3.04 1.78-.26 0-.49-.02-.71-.05-.73 3.72-1.19 5.93-2.82 7.82-1.4 1.67-2.83 1.92-3.47 1.94-1.2.05-2-.59-2-1.44-.04-.82.68-1.27 1.16-1.28.64-.02 1.08.44 1.09.97.02.44-.22.59-.37.67-.08.08-.26.18-.25.36 0 .08.08.26.35.25.5-.01.83-.26 1.07-.43 1.15-.96 1.61-2.65 2.2-5.72.31-1.74.54-2.86.88-3.96-.82-.61-1.32-1.38-2.41-1.66-.76-.23-1.21-.05-1.54.36-.37.49-.25 1.12.11 1.49 1.38 1.54 1.79 2.21 1.63 3.12-.24 1.45-1.97 2.56-4.01 1.93-1.74-.54-2.06-1.76-1.86-2.45.19-.59.66-.71 1.13-.56.5.16.7.76.55 1.22-.02.05-.26.49-.32.64-.11.37.4.62.74.73.78.24 1.54-.17 1.72-.8.18-.58-.18-.98-.34-1.14-1.07-1.18-1.81-2.22-1.45-3.4.14-.44.43-.92.86-1.25.9-.66 1.88-.78 2.81-.49 1.21.32 1.79 1.13 2.54 1.74.42-1.22 1.01-2.44 1.88-3.46.79-.92 1.85-1.6 3.07-1.64"/></svg>