<svg xmlns="http://www.w3.org/2000/svg" data-name="Layer 1" viewBox="0 0 25 25"><path d="M20.95 20.95h-3.56v-5.57c0-1.33-.02-3.04-1.85-3.04s-2.14 1.45-2.14 2.94v5.67H9.84V9.5h3.41v1.57h.05c.7-1.19 1.99-1.9 3.37-1.85 3.6 0 4.27 2.37 4.27 5.45v6.28ZM5.84 7.93c-1.14 0-2.06-.92-2.06-2.06s.92-2.06 2.06-2.06 2.06.92 2.06 2.06-.92 2.06-2.06 2.06m1.78 13.02H4.06V9.5h3.56zM22.72.5H2.27C1.3.49.51 1.26.5 2.23v20.54c.01.97.8 1.74 1.77 1.73h20.45c.97.01 1.76-.76 1.78-1.73V2.23c-.01-.97-.81-1.74-1.78-1.73" style="fill:#00b8ff"/></svg>