<svg xmlns="http://www.w3.org/2000/svg" xml:space="preserve" viewBox="0 0 25 25"><path d="M24.5 10.7c0-1.4-1.1-2.5-2.5-2.5h-5.8c-.3 0-.6.1-.8 0h-.2v-.3l1.4-3.5c.1-.3.2-.7.2-1 0-1.1-.6-2.1-1.7-2.6-.3-.1-.7-.2-1-.2-1.1 0-2.1.7-2.5 1.7L9.1 8.4c-.2.4-.3.7-.4 1-.2.5-.4.8-.6 1-.1.1-.2.2-.4.2-.2.1-.4.1-.7.1-.2 0-.3 0-.5.1H2.6c-1.2 0-2.1.9-2.1 2.1v9.5c0 1.2.9 2.1 2.1 2.1h2.9c.6 0 1.2-.5 1.2-1.2v-1l.6.3c.8.3 1.7.4 2.9.4h9c1.4 0 2.5-1.1 2.5-2.5 0-.3-.1-.6-.2-.9 1-.3 1.7-1.3 1.7-2.4 0-.4-.1-.9-.3-1.2.3-.2.5-.6.6-.9.1-.4.2-.7.2-1.1 0-.2-.1-.5-.1-.7-.1-.2-.1-.3-.3-.5.7-.4 1.2-1.2 1.2-2.1M22 11.9h-.4c-.2 0-.3.1-.4.2s-.2.3-.2.4c0 .2.1.3.2.4s.3.2.4.2.2 0 .3.1.3.2.4.4.1.3.1.4c0 .4-.1.7-.2.9-.1.1-.1.2-.2.2-.1.1-.2.1-.3.1-.2 0-.4.2-.5.5-.1.2 0 .5.2.6.3.2.5.6.5 1 0 .7-.6 1.3-1.3 1.3h-.3c-.3 0-.5.2-.6.4s0 .5.2.7c.3.2.4.6.4.9 0 .7-.6 1.3-1.3 1.3h-9c-.9 0-1.7-.1-2.3-.3-.4-.1-.8-.3-1-.5l-.3-.3V12h.4c.5 0 1-.1 1.4-.3.3-.1.5-.3.7-.6.3-.3.5-.7.6-1.1.2-.4.3-.8.5-1.2l2.4-6.1c.2-.6.8-.9 1.4-1 .2 0 .4 0 .6.1.6.2 1 .8 1 1.4 0 .2 0 .4-.1.6L14 7.5V8c0 .2 0 .4.1.6s.2.3.3.4q.3.3.6.3c.2 0 .4.1.5.1.3 0 .7-.1.8 0H22c.7 0 1.3.6 1.3 1.3s-.6 1.2-1.3 1.2" style="fill:#000"/></svg>