<svg xmlns="http://www.w3.org/2000/svg" data-name="Capa 1" viewBox="0 0 25 25"><path d="M11.84 17.07c-.35 0-.64.31-.64.68 0 .19.07.36.19.48l1.09 1.17 1.09-1.17c.11-.12.19-.3.19-.48 0-.38-.29-.68-.64-.68-.17 0-.34.08-.45.2l-.19.2-.19-.2a.6.6 0 0 0-.45-.2" style="fill:red"/><path d="M18.64 21.97c-.38 0-.76.01-1.14 0-.93-.04-1.79.11-2.68.49-1.68.71-3.43.63-5.09-.15a3.45 3.45 0 0 0-1.57-.34q-2.055.03-4.11 0C2.5 21.95 1.18 21 .7 19.54c-.26-.8-.24-1.63.06-2.42 1.24-3.27 2.4-6.57 3.78-9.78 1.4-3.26 4-5.02 7.56-5.26 3.83-.25 7.31 2.2 8.59 5.64 1.18 3.16 2.41 6.29 3.59 9.45.87 2.34-.79 4.75-3.29 4.8-.78.02-1.56 0-2.34 0Zm-8.1-11.65s0 .09.01.14c.41.51.82 1.03 1.3 1.63h1.32c.43-.61.82-1.17 1.24-1.77zm7.09 6.17c-.87.12-1.72.11-2.53-.31-1.09-.56-1.67-1.5-1.92-2.66h-1.27c-.72 2.42-2.09 3.28-4.67 2.91.04.37.04.72.13 1.06.33 1.23 1.03 2.21 2.05 2.95 3.03 2.2 8.04.47 8.35-3.9-.01-.03-.03-.07-.04-.1-.03.02-.07.03-.1.05m-9.19-1.33c1.15 0 2.02-.9 2.01-2.06-.01-1.11-.91-2-2.02-2.01-1.17 0-2.08.91-2.06 2.08.01 1.16.88 1.99 2.08 1.99Zm6.17-2.02c0 1.14.88 2.07 2 2.09 1.08.02 2.06-.94 2.07-2.04 0-1.13-.89-2.07-2.01-2.09-1.11-.02-2.05.91-2.05 2.03Zm-8.89 3.18c-.98-.51-2.08-.22-2.62.73s-.21 2.12.74 2.68c.91.54 2 .26 2.54-.61-.22-.92-.43-1.82-.66-2.8m12.91 2.86c.48.87 1.94 1.09 2.84.38.76-.59.93-1.73.4-2.55-.57-.87-1.9-1.2-2.56-.64z"/><path d="M10.53 10.32s0 .09.01.14c0-.05 0-.09-.01-.14" style="fill:#f384b9"/><path d="M17.77 16.54s-.09-.04-.14-.05c.03-.02.07-.03.1-.05.01.03.03.07.04.1" style="fill:#f8bcd9"/></svg>