<svg xmlns="http://www.w3.org/2000/svg" id="Layer_1" data-name="Layer 1" viewBox="0 0 1500 1500"><defs><style>.cls-2{fill:#afafaf}</style></defs><path d="M239.78 708.54c-2.13-86.27 32.35-158.59 97.01-215.77-109.63 136.95-73.18 326.86 59.85 411.25 95.9 60.84 235.47 48.97 301.92-19.88l81.34-2.29-39.97 44.63c-96.94 82.21-205.45 104.67-322.79 53.4C300.6 928.97 242.9 834.33 239.79 708.54Z" style="fill:#69dcff"/><path d="M408.69 566.91c-71.25 89.23-74.48 202.47-9.57 274.87 59.33 66.18 151.57 85.68 224.75 42.99-92.08 11.09-160.78-19.61-206.63-93.8-44.7-72.31-44.14-147.89-8.54-224.05Z" style="fill:#00b7ff"/><path d="M508.13 547.79h34.05v274.72h-34.05zM703.14 822.51l-2.71-23.6h-1.16c-10.45 14.7-30.57 27.86-57.27 27.86-37.92 0-57.27-26.7-57.27-53.78 0-45.27 40.24-70.04 112.6-69.65v-3.87c0-15.48-4.26-43.34-42.56-43.34-17.41 0-35.6 5.42-48.75 13.93l-7.74-22.44c15.48-10.06 37.92-16.64 61.52-16.64 57.27 0 71.2 39.08 71.2 76.61v70.04c0 16.25.77 32.12 3.1 44.88h-30.95Zm-5.03-95.57c-37.15-.77-79.32 5.8-79.32 42.18 0 22.06 14.7 32.5 32.12 32.5 24.38 0 39.85-15.48 45.27-31.34 1.16-3.48 1.93-7.35 1.93-10.83v-32.5ZM785.94 685.93c0-19.35-.39-35.21-1.55-50.69h29.79l1.55 30.18h1.16c10.45-17.8 27.86-34.44 58.81-34.44 25.54 0 44.88 15.48 53.01 37.53h.77c5.8-10.45 13.16-18.57 20.89-24.38 11.22-8.51 23.6-13.16 41.4-13.16 24.76 0 61.52 16.25 61.52 81.26v110.28h-33.28V716.49c0-35.99-13.15-57.65-40.63-57.65-19.35 0-34.44 14.32-40.24 30.96-1.55 4.64-2.71 10.83-2.71 17.03v115.69h-33.28V710.31c0-29.79-13.16-51.46-39.08-51.46-21.28 0-36.76 17.03-42.18 34.05-1.93 5.03-2.71 10.83-2.71 16.64v112.99H785.9V685.94ZM1127.6 735.07c.77 46.05 30.18 65 64.23 65 24.38 0 39.08-4.26 51.85-9.67l5.81 24.38c-12 5.42-32.5 11.61-62.3 11.61-57.65 0-92.09-37.92-92.09-94.41s33.28-100.99 87.84-100.99c61.14 0 77.39 53.78 77.39 88.22 0 6.96-.77 12.38-1.16 15.86h-131.56Zm99.83-24.38c.39-21.67-8.9-55.33-47.21-55.33-34.44 0-49.53 31.73-52.24 55.33h99.44Z" class="cls-2"/></svg>