<svg xmlns="http://www.w3.org/2000/svg" id="Layer_1" data-name="Layer 1" viewBox="0 0 2000 2000"><defs><style>.cls-1{fill:#ffc200}</style></defs><path d="m659.56 1100.37-147.49 121.28-.67.34c-.45 0-.79.12-1.01.34l-4.03 1.34h-31.24c-10.08 0-15.12-4.92-15.12-14.78V739.56c0-4.7 1.34-8.34 4.03-10.92 2.69-2.57 6.38-3.86 11.09-3.86H503c4.48 0 8.12 1.34 10.92 4.03s4.2 6.27 4.2 10.75v409.2l102.8-88.02q5.04-5.04 10.08-5.04c3.81 0 7.5 1.8 11.09 5.38l17.47 18.14c3.13 3.14 4.7 6.61 4.7 10.41 0 4.03-1.57 7.62-4.7 10.75Z"/><path d="m820.48 1101.71-141.77 117.25c-3.81 3.14-8.73 4.7-14.78 4.7h-27.88c-10.08 0-15.12-4.92-15.12-14.78V908.2c0-4.7 1.34-8.34 4.03-10.92 2.69-2.57 6.38-3.86 11.09-3.86h27.88c4.48 0 8.12 1.34 10.92 4.03s4.2 6.27 4.2 10.75v241.22l102.8-87.69q5.04-5.04 10.08-5.04c3.81 0 7.5 1.8 11.09 5.38l17.47 18.48c3.13 3.14 4.7 6.61 4.7 10.41 0 4.03-1.57 7.62-4.7 10.75Z"/><path d="m980.39 1101.71-141.77 117.25c-3.36 3.14-7.51 4.7-12.43 4.7H797.3c-10.08 0-15.12-4.92-15.12-14.78V879.3H759c-5.83 0-10.03-1.01-12.6-3.02s-3.86-5.82-3.86-11.42V836.3c0-5.6 1.29-9.29 3.86-11.09 2.57-1.79 6.77-2.69 12.6-2.69h23.85v-77.61c0-3.81.84-6.66 2.52-8.57 1.68-1.9 4.65-3.41 8.9-4.54l33.93-5.04c5.15 0 8.62 1.63 10.41 4.87 1.79 3.25 2.69 7.56 2.69 12.93v77.94h78.61c5.38 0 9.24 1.12 11.59 3.36s3.53 6.27 3.53 12.09v25.2c0 10.75-5.04 16.13-15.12 16.13h-79.62v268.77l101.46-86.34q5.04-5.04 10.08-5.04c3.81 0 7.5 1.8 11.09 5.38l17.47 18.48c3.13 3.14 4.7 6.61 4.7 10.41 0 4.03-1.57 7.62-4.7 10.75Z"/><path d="m1141.64 1101.71-141.77 117.25c-3.36 3.14-7.51 4.7-12.43 4.7h-28.89c-10.08 0-15.12-4.92-15.12-14.78V879.3h-23.18c-5.83 0-10.03-1.01-12.6-3.02s-3.86-5.82-3.86-11.42V836.3c0-5.6 1.29-9.29 3.86-11.09 2.57-1.79 6.77-2.69 12.6-2.69h23.85v-77.61c0-3.81.84-6.66 2.52-8.57 1.68-1.9 4.65-3.41 8.9-4.54l33.93-5.04c5.15 0 8.62 1.63 10.41 4.87 1.79 3.25 2.69 7.56 2.69 12.93v77.94h78.61c5.38 0 9.24 1.12 11.59 3.36s3.53 6.27 3.53 12.09v25.2c0 10.75-5.04 16.13-15.12 16.13h-79.62v268.77l101.46-86.34q5.04-5.04 10.08-5.04c3.81 0 7.5 1.8 11.09 5.38l17.47 18.48c3.13 3.14 4.7 6.61 4.7 10.41 0 4.03-1.57 7.62-4.7 10.75Z"/><path d="M1066.38 1353.34c-5.38 0-8.06-2.13-8.06-6.38 0-2.47.79-4.82 2.35-7.06l80.63-136.74-64.17-284.56c-1.12-1.79-1.68-4.92-1.68-9.41 0-5.38 1.34-9.35 4.03-11.93 2.69-2.57 6.94-3.86 12.77-3.86h25.87c4.25 0 7.56 1.01 9.91 3.02s4.2 5.04 5.54 9.07l48.71 228.45 137.07-231.14c2.24-6.27 7.5-9.41 15.79-9.41h136.4c4.03 0 7.33 1.23 9.91 3.7 2.57 2.47 3.86 5.71 3.86 9.74v26.2c0 4.03-1.29 7.45-3.86 10.25-2.58 2.8-5.88 4.2-9.91 4.2h-117.59l-234.84 396.43c-2.24 6.27-7.51 9.41-15.79 9.41h-36.96Z"/><path d="M622.34 817.14h50.64c2.38 0 3.85-1.47 3.85-3.85V802.1c0-16.93 24.62-27.84 24.62-58.06 0-31.83-21.54-53.09-53.79-53.09s-53.72 21.26-53.72 53.09 24.55 41.13 24.55 58.06v11.19c0 2.38 1.54 3.85 3.85 3.85" class="cls-1"/><path d="M624.93 836.02h45.46c3.57 0 6.43-2.94 6.43-6.57s-2.87-6.58-6.43-6.58h-45.46c-3.57 0-6.44 2.94-6.44 6.58s2.87 6.57 6.44 6.57M647.66 852.88c9.65 0 16.44-4.41 17.14-11.19h-34.27c.63 6.78 7.41 11.19 17.14 11.19Z"/><circle cx="1486.25" cy="922.43" r="53.75"/><path d="M641.42 646.66h12.54v25.08h-12.54zM553.62 734.45h25.08v12.54h-25.08zM716.68 734.45h25.08v12.54h-25.08zM568.004 682.455l8.867-8.867 18.817 18.816-8.868 8.867zM699.7 692.391l18.816-18.816 8.867 8.867-18.816 18.816z" class="cls-1"/></svg>