<svg xmlns="http://www.w3.org/2000/svg" id="Layer_1" data-name="Layer 1" viewBox="0 0 1375 500"><defs><style>.cls-2{fill:#afafaf}</style></defs><path d="M147.5 250.89h19.29v155.59H147.5zM257.95 406.49l-1.53-13.37h-.66c-5.92 8.33-17.31 15.78-32.43 15.78-21.48 0-32.43-15.12-32.43-30.46 0-25.64 22.79-39.67 63.77-39.45v-2.19c0-8.77-2.41-24.54-24.11-24.54-9.86 0-20.16 3.07-27.61 7.89l-4.38-12.71c8.77-5.7 21.48-9.42 34.84-9.42 32.43 0 40.32 22.13 40.32 43.39v39.67c0 9.2.44 18.19 1.75 25.42h-17.53Zm-2.85-54.13c-21.04-.44-44.93 3.29-44.93 23.89 0 12.49 8.33 18.41 18.19 18.41 13.81 0 22.57-8.77 25.64-17.75.66-1.97 1.1-4.16 1.1-6.14zM304.84 329.13c0-10.96-.22-19.94-.88-28.71h16.87l.88 17.09h.66c5.92-10.08 15.78-19.5 33.31-19.5 14.46 0 25.42 8.77 30.02 21.26h.44c3.29-5.92 7.45-10.52 11.83-13.81 6.36-4.82 13.37-7.45 23.45-7.45 14.03 0 34.84 9.2 34.84 46.02v62.46h-18.85v-60.05c0-20.38-7.45-32.65-23.01-32.65-10.96 0-19.5 8.11-22.79 17.53-.88 2.63-1.53 6.14-1.53 9.64v65.53h-18.85v-63.55c0-16.87-7.45-29.15-22.13-29.15-12.05 0-20.82 9.64-23.89 19.29-1.1 2.85-1.53 6.14-1.53 9.42v63.99h-18.85v-77.36ZM498.34 356.96c.44 26.08 17.09 36.82 36.38 36.82 13.81 0 22.13-2.41 29.37-5.48l3.29 13.81c-6.79 3.07-18.41 6.57-35.28 6.57-32.65 0-52.16-21.48-52.16-53.47s18.85-57.2 49.75-57.2c34.63 0 43.83 30.46 43.83 49.97 0 3.94-.44 7.01-.66 8.98h-74.51Zm56.54-13.81c.22-12.27-5.04-31.34-26.74-31.34-19.5 0-28.05 17.97-29.59 31.34h56.32ZM605.06 300.42l14.03 53.91c3.07 11.83 5.92 22.79 7.89 33.75h.66c2.41-10.74 5.92-22.13 9.42-33.53l17.31-54.13h16.22l16.44 53.03c3.94 12.71 7.01 23.89 9.42 34.63h.66c1.75-10.74 4.6-21.92 8.11-34.41l15.12-53.25h19.07l-34.19 106.07h-17.53l-16.22-50.62c-3.73-11.83-6.79-22.35-9.42-34.84h-.44c-2.63 12.71-5.92 23.67-9.64 35.06l-17.09 50.4h-17.53l-32-106.07h19.72ZM852.48 352.58c0 39.23-27.17 56.32-52.81 56.32-28.71 0-50.84-21.04-50.84-54.57 0-35.5 23.23-56.32 52.6-56.32s51.06 22.13 51.06 54.57Zm-84.15 1.1c0 23.23 13.37 40.76 32.21 40.76s32.21-17.31 32.21-41.2c0-17.97-8.99-40.76-31.78-40.76s-32.65 21.04-32.65 41.2ZM876.8 333.51c0-12.49-.22-23.23-.88-33.09h16.87l.66 20.82h.88c4.82-14.24 16.44-23.23 29.37-23.23 2.19 0 3.73.22 5.48.66v18.19c-1.97-.44-3.95-.66-6.57-.66-13.59 0-23.23 10.3-25.86 24.76-.44 2.63-.88 5.7-.88 8.98v56.54H876.8V333.5ZM968.4 349.07h.44c2.63-3.73 6.36-8.33 9.42-12.05l31.12-36.6h23.23l-40.98 43.61 46.68 62.46h-23.45l-36.6-50.84-9.86 10.96v39.88h-19.07V250.9h19.07v98.18Z" class="cls-2"/><path d="M1080.03 93.02c-48.31-7.39-91.42 6.79-128.18 39.01 84.81-51.76 188.88-17.64 226.74 63.15 27.29 58.25 10.6 135.8-32.85 168.19l-7.13 45.53 27.94-19.25c53.14-48.56 73.55-107.9 53.18-177.51-20.23-69.13-69.26-108.34-139.71-119.12Z" style="fill:#69dcff"/><path d="M988.34 177.75c55.24-33.62 119.1-27.3 155.11 14.36 32.92 38.09 37.25 91.31 8.01 129.35 12.84-50.93.53-91.73-37.86-122.82-37.42-30.3-79.92-35.42-125.26-20.88Z" style="fill:#00b7ff"/></svg>