<svg xmlns="http://www.w3.org/2000/svg" id="Layer_1" data-name="Layer 1" viewBox="0 0 600 250"><defs><style>.cls-1{fill:#77ad00}.cls-2{fill:#383838}</style></defs><path d="M235.16 74.94h12.22v98.59h-12.22zM274.74 142.15c.28 16.52 10.83 23.33 23.05 23.33 8.75 0 14.03-1.53 18.61-3.47l2.08 8.75c-4.3 1.94-11.66 4.17-22.36 4.17-20.69 0-33.05-13.61-33.05-33.88s11.94-36.24 31.52-36.24c21.94 0 27.77 19.3 27.77 31.66 0 2.5-.28 4.44-.42 5.69h-47.21Zm35.83-8.75c.14-7.78-3.19-19.86-16.94-19.86-12.36 0-17.77 11.39-18.75 19.86zM337.51 124.51c0-6.94-.14-12.64-.56-18.19h10.83l.69 11.11h.28c3.33-6.39 11.11-12.64 22.22-12.64 9.3 0 23.75 5.55 23.75 28.61v40.13H382.5v-38.74c0-10.83-4.03-19.86-15.55-19.86-8.05 0-14.3 5.69-16.39 12.5-.56 1.53-.83 3.61-.83 5.69v40.41h-12.22zM472.63 74.94v81.23c0 5.97.14 12.77.56 17.36h-10.97l-.56-11.66h-.28c-3.75 7.5-11.94 13.19-22.91 13.19-16.25 0-28.74-13.75-28.74-34.16-.14-22.36 13.75-36.1 30.13-36.1 10.28 0 17.22 4.86 20.27 10.28h.28V74.95h12.22Zm-12.22 58.74c0-1.53-.14-3.61-.56-5.14-1.8-7.78-8.47-14.16-17.63-14.16-12.64 0-20.14 11.11-20.14 25.97 0 13.61 6.67 24.86 19.86 24.86 8.19 0 15.69-5.42 17.91-14.58.42-1.67.56-3.33.56-5.28v-11.66Z" class="cls-2"/><path d="M218.16 104.07c1.92-2.69 2.96-5.9 2.96-9.28 0-4.28-1.67-8.3-4.69-11.33-6.25-6.25-16.41-6.25-22.65 0-6.25 6.25-6.25 16.41 0 22.65 3.12 3.12 7.22 4.68 11.33 4.68 1.4 0 2.79-.18 4.15-.54 7.31 17.03.98 37.3-15.4 46.95-6.91 4.07-15.11 5.83-23.08 4.95a5.337 5.337 0 0 0-1.17 10.61c1.76.19 3.52.29 5.28.29 3.38 0 6.75-.36 10.07-1.07 5.05-1.08 9.87-2.96 14.32-5.58 11.06-6.52 18.93-16.95 22.15-29.38 2.88-11.15 1.72-22.71-3.26-32.96ZM140.53 139.74c-3.26-7.58-3.92-15.97-1.82-24.09 2.5-9.67 8.62-17.79 17.23-22.86 6.91-4.07 15.11-5.83 23.08-4.95a5.337 5.337 0 0 0 1.17-10.61c-5.13-.57-10.3-.31-15.35.78a48 48 0 0 0-14.32 5.58c-11.06 6.52-18.93 16.95-22.15 29.38-2.88 11.15-1.72 22.71 3.26 32.96-4.44 6.25-3.87 15 1.73 20.6 3.03 3.03 7.05 4.69 11.33 4.69s8.3-1.67 11.33-4.69c6.25-6.25 6.25-16.41 0-22.65-4.19-4.19-10.13-5.57-15.48-4.14Z" class="cls-1"/></svg>