<svg xmlns="http://www.w3.org/2000/svg" id="Layer_1" data-name="Layer 1" viewBox="0 0 1375 500"><defs><style>.cls-1{fill:#aeafb1}</style></defs><path d="M147.5 350.33V195.54h21.66l2.23 36.63h.96c8.07-12.53 18.04-22.4 29.94-29.62 11.89-7.22 24.95-10.83 39.17-10.83 5.73 0 11.09.48 16.08 1.43s9.82 2.6 14.49 4.94l-6.05 22.61c-5.31-1.91-9.87-3.29-13.69-4.14-3.82-.84-8.81-1.27-14.97-1.27-11.68 0-22.88 3.34-33.6 10.03s-20.76 18.11-30.1 34.24v90.77zM387.64 354.15c-13.59 0-26.17-3.18-37.74-9.55-11.58-6.37-20.92-15.6-28.03-27.71-7.12-12.1-10.67-26.64-10.67-43.63s3.55-32.17 10.67-44.27c7.11-12.1 16.45-21.34 28.03-27.71 11.57-6.37 24.15-9.55 37.74-9.55s26.17 3.18 37.74 9.55 20.91 15.6 28.03 27.71c7.11 12.1 10.67 26.86 10.67 44.27s-3.56 31.53-10.67 43.63c-7.12 12.1-16.46 21.34-28.03 27.71-11.58 6.37-24.16 9.55-37.74 9.55m0-21.65c14.86 0 26.8-5.47 35.83-16.4 9.02-10.93 13.54-25.21 13.54-42.84s-4.51-32.27-13.54-43.31-20.97-16.56-35.83-16.56-26.81 5.52-35.83 16.56c-9.03 11.04-13.54 25.48-13.54 43.31s4.51 31.91 13.54 42.84c9.02 10.94 20.97 16.4 35.83 16.4M561.54 354.15c-18.47 0-32.06-5.3-40.77-15.92-8.71-10.61-13.06-26.12-13.06-46.5v-96.19h26.44v92.68c0 14.65 2.71 25.53 8.12 32.65 5.42 7.12 14.6 10.67 27.55 10.67 8.92 0 17.04-2.28 24.37-6.85 7.32-4.56 15.23-11.83 23.73-21.82V195.54h26.12v154.79H622.7l-2.23-27.07h-1.27c-7.86 9.13-16.46 16.56-25.8 22.3-9.35 5.73-19.96 8.6-31.85 8.6ZM799.77 354.15c-15.08 0-26.97-2.71-35.67-8.12-8.71-5.41-14.92-12.9-18.63-22.45-3.72-9.55-5.57-20.7-5.57-33.44v-73.25h-43.63v-19.75l44.59-1.59 3.51-49.68h21.65v49.68h76.13v21.34h-76.13v73.57c0 13.8 2.82 24.32 8.44 31.53 5.62 7.22 15.88 10.83 30.74 10.83 7.43 0 14.12-.63 20.06-1.91 5.94-1.27 11.67-2.97 17.2-5.1l5.73 19.11c-7 2.55-14.39 4.73-22.13 6.53-7.76 1.8-16.51 2.71-26.28 2.71ZM970.48 354.15c-15.5 0-29.57-3.18-42.2-9.55s-22.67-15.66-30.1-27.87c-7.44-12.21-11.15-26.92-11.15-44.11s3.71-31.21 11.15-43.32c7.43-12.1 17.14-21.39 29.14-27.87 11.99-6.48 24.9-9.71 38.7-9.71 22.29 0 39.65 6.64 52.07 19.91q18.63 19.905 18.63 52.71c0 2.98-.11 5.84-.32 8.6q-.315 4.14-.96 7.32H913.46c1.7 17.42 8.12 30.58 19.27 39.5s24.79 13.38 40.93 13.38c9.34 0 17.78-1.32 25.32-3.98 7.53-2.65 14.81-6.21 21.82-10.67l9.55 17.2c-7.64 5.1-16.4 9.45-26.28 13.06s-21.08 5.41-33.6 5.41Zm-3.82-141.73c-12.74 0-24.1 4.09-34.08 12.26q-14.97 12.27-18.48 35.19h98.74c-1.07-15.92-5.73-27.81-14.01-35.67-8.28-7.85-19.01-11.78-32.17-11.78M1102.97 350.33V195.54h21.66l2.23 36.63h.96c8.07-12.53 18.04-22.4 29.94-29.62q17.835-10.83 39.18-10.83c5.73 0 11.09.48 16.08 1.43s9.82 2.6 14.49 4.94l-6.05 22.61c-5.31-1.91-9.87-3.29-13.7-4.14-3.82-.84-8.81-1.27-14.97-1.27-11.68 0-22.88 3.34-33.6 10.03s-20.76 18.11-30.1 34.24v90.77z" class="cls-1"/></svg>