<svg xmlns="http://www.w3.org/2000/svg" id="Layer_1" data-name="Layer 1" viewBox="0 0 2000 2000"><defs><style>.cls-1{fill:#088c5a}</style></defs><path d="M686.75 460v924.46h626.5V460zm48.21 45.84h530.08v404.62l-74.3 11.19-59.25-130.8c-7.87-16.08-17.8-29.11-29.8-39.39-5.12-5.12-10.96-9.59-17.46-12.99-6.49-3.78-13.71-6.19-20.9-7.56-19.18-4.43-36.63-1.68-52.72 7.56l-130.84 61.27c-8.9 5.84-17.11 7.87-19.52 9.59-13.33 9.24-15.74 14.4-17.11 17.11L777.4 952.81c-.69 1.03-1.03 2.41-1.38 3.78a35.34 35.34 0 0 0-3.74 15.74c0 5.81 1.68 11.65 4.09 16.43 3.44 8.25 8.9 13.37 16.43 15.78 4.47 2.02 9.59 3.4 15.09 3.4 14.02 0 26.36-8.21 32.17-20.21.34-.65 1.03-1.34 1.38-2.02 41.1-77.05 61.66-115.75 61.66-116.44l69.87-16.43-83.93 353.05-154.06-.99V505.84Zm0 832.78v-57.03h32.17c34.57 1.72 136.99 6.15 168.12 2.71 1.03 0 2.06.34 3.09.34 17.46 0 31.86-12.3 34.92-28.77l23.99-70.52c8.02-23.11 14.82-45.88 19.56-62.88s7.49-28.23 7.49-28.23c41.79 43.85 72.96 72.62 101.73 102.76l43.05 141.61H734.96Zm519.11-10.47-8.9-33.23-35.95-133.89c-5.16-12.3-9.24-24.64-19.86-36.29 0 0-100.35-111.28-103.07-113l22.92-107.88 31.86 67.46c.34.69.69 1.03 1.38 1.72 2.06 3.09 4.09 5.81 5.81 7.87 6.19 6.19 14.4 9.93 23.65 9.93h.69c2.71 0 5.46-.34 8.21-1.03l84.23-9.09v357.91h-8.18l-2.79-10.47Z" class="cls-1"/><path d="M1077.38 708.33c19.86 0 36.64-6.85 50.68-20.89s20.89-30.48 20.89-49.31c0-19.86-6.85-36.64-20.89-50.68s-30.82-20.89-50.68-20.89-35.61 6.85-49.65 20.89-20.89 30.82-20.89 50.68 6.85 35.61 20.89 49.31c14.38 14.04 30.82 20.89 49.65 20.89M723.3 1463.27h-32.81c-1.31 0-2.26-.26-2.83-.79s-.85-1.21-.85-2.04c0-.79.27-1.45.82-1.97s1.5-.79 2.86-.79h38.33v60.82c0 4.69-.96 8.61-2.89 11.77s-4.82 5.72-8.68 7.69c-2.67 1.36-5.85 2.04-9.53 2.04h-17.55c-1.31 0-2.26-.25-2.83-.76-.57-.5-.85-1.17-.85-2.01s.28-1.51.85-2.04 1.51-.79 2.83-.79l17.42.07c4.69 0 8.48-1.54 11.37-4.6 2.89-3.07 4.34-6.86 4.34-11.37zm-.33-33.93v14.27h-8.15v-14.27zM814.1 1461.3c0-1.27.26-2.19.79-2.76s1.18-.85 1.97-.85c.83 0 1.51.29 2.04.85.53.57.79 1.54.79 2.89v9.47c0 1.31-.26 2.26-.79 2.83s-1.21.85-2.04.85c-.75 0-1.37-.24-1.87-.72s-.8-1.27-.89-2.37q-.39-3.945-4.08-6.51c-3.59-2.45-8.35-3.68-14.27-3.68s-10.98 1.25-14.4 3.75c-2.59 1.88-3.88 3.99-3.88 6.31 0 2.63 1.53 4.82 4.6 6.57 2.1 1.23 6.09 2.17 11.97 2.83 7.67.83 13 1.78 15.98 2.83 4.25 1.54 7.42 3.66 9.5 6.38s3.12 5.65 3.12 8.81c0 4.69-2.26 8.87-6.77 12.52s-11.13 5.49-19.86 5.49-15.87-2.21-21.43-6.64c0 1.49-.09 2.46-.26 2.89-.18.44-.49.81-.95 1.12s-.98.46-1.55.46c-.79 0-1.45-.28-1.97-.85-.53-.57-.79-1.51-.79-2.83v-11.37c0-1.31.25-2.26.76-2.83.5-.57 1.17-.85 2.01-.85.79 0 1.46.27 2.01.82s.82 1.28.82 2.2c0 2.02.5 3.7 1.51 5.06 1.53 2.1 3.98 3.85 7.33 5.23q5.025 2.07 12.33 2.07c7.19 0 12.54-1.34 16.04-4.01 3.51-2.67 5.26-5.5 5.26-8.48 0-3.42-1.78-6.16-5.33-8.22-3.59-2.06-8.82-3.44-15.68-4.14q-10.29-1.05-14.76-2.76c-2.98-1.14-5.3-2.85-6.97-5.13s-2.5-4.73-2.5-7.36c0-4.73 2.32-8.49 6.97-11.28 4.65-2.78 10.19-4.17 16.63-4.17 7.63 0 13.83 1.86 18.61 5.59Z" class="cls-1"/><path d="M858.68 1480.3v28.8h10.19c1.36 0 2.32.25 2.89.76.57.5.85 1.17.85 2.01 0 .79-.28 1.45-.85 1.97s-1.53.79-2.89.79h-23.14c-1.31 0-2.26-.26-2.83-.79s-.85-1.18-.85-1.97c0-.83.28-1.5.85-2.01.57-.5 1.51-.76 2.83-.76h7.43v-65.88h-7.43c-1.31 0-2.26-.25-2.83-.76-.57-.5-.85-1.17-.85-2.01s.28-1.5.85-2.01c.57-.5 1.51-.76 2.83-.76h33.4c6.88 0 12.68 2.18 17.39 6.54s7.07 9.28 7.07 14.76c0 3.94-1.46 7.66-4.37 11.14s-7.79 6.39-14.63 8.71c3.94 2.72 7.32 5.79 10.13 9.2 2.81 3.42 7.3 10.43 13.48 21.04h4.21c1.31 0 2.26.25 2.83.76.57.5.85 1.17.85 2.01 0 .79-.28 1.45-.85 1.97s-1.51.79-2.83.79h-7.36c-6.84-12.23-12.13-20.42-15.88-24.59-3.75-4.16-8.05-7.41-12.92-9.73H858.7Zm0-5.52h15.06c4.82 0 9.19-.88 13.12-2.63q5.88-2.625 8.55-6.18c1.78-2.37 2.66-4.78 2.66-7.23 0-3.68-1.85-7.19-5.56-10.52-3.7-3.33-8.21-5-13.51-5h-20.32zM976.36 1514.62v-8.09c-7.54 6.84-15.69 10.26-24.46 10.26-5.39 0-9.49-1.47-12.29-4.41-3.64-3.86-5.46-8.35-5.46-13.48v-35.63h-7.43c-1.31 0-2.26-.26-2.83-.79s-.85-1.21-.85-2.04c0-.79.28-1.45.85-1.97s1.51-.79 2.83-.79h12.95v41.22q0 5.385 3.42 8.88 3.42 3.48 8.55 3.48 13.485 0 24.72-12.36v-35.63h-10.19c-1.31 0-2.26-.26-2.83-.79s-.85-1.21-.85-2.04c0-.79.28-1.45.85-1.97.57-.53 1.51-.79 2.83-.79h15.71v51.41h4.67c1.31 0 2.26.25 2.83.76.57.5.85 1.17.85 2.01 0 .79-.28 1.45-.85 1.97-.57.53-1.51.79-2.83.79zM1020.41 1457.68v8.35c3.86-3.9 7.34-6.6 10.45-8.09s6.62-2.24 10.52-2.24c4.21 0 8.04.9 11.51 2.7 2.45 1.31 4.68 3.5 6.67 6.54 1.99 3.05 2.99 6.17 2.99 9.37v34.78h4.67c1.31 0 2.26.25 2.83.76.57.5.85 1.17.85 2.01 0 .79-.28 1.45-.85 1.97-.57.53-1.51.79-2.83.79h-14.79c-1.36 0-2.32-.26-2.89-.79s-.85-1.18-.85-1.97c0-.83.28-1.5.85-2.01.57-.5 1.53-.76 2.89-.76h4.6v-33.86c0-3.9-1.42-7.2-4.27-9.89s-6.66-4.04-11.44-4.04c-3.64 0-6.79.73-9.47 2.2-2.67 1.47-6.49 5.12-11.44 10.95v34.65h6.25c1.31 0 2.26.25 2.83.76.57.5.85 1.17.85 2.01 0 .79-.28 1.45-.85 1.97-.57.53-1.51.79-2.83.79h-18.01c-1.31 0-2.26-.26-2.83-.79s-.85-1.18-.85-1.97c0-.83.28-1.5.85-2.01.57-.5 1.51-.76 2.83-.76h6.25v-45.83h-4.67c-1.31 0-2.26-.26-2.83-.79s-.85-1.21-.85-2.04c0-.79.28-1.45.85-1.97.57-.53 1.51-.79 2.83-.79h10.19ZM1101.22 1457.68v8.35c3.86-3.9 7.34-6.6 10.45-8.09s6.62-2.24 10.52-2.24c4.21 0 8.04.9 11.51 2.7 2.45 1.31 4.68 3.5 6.67 6.54 1.99 3.05 2.99 6.17 2.99 9.37v34.78h4.67c1.31 0 2.26.25 2.83.76.57.5.85 1.17.85 2.01 0 .79-.28 1.45-.85 1.97-.57.53-1.51.79-2.83.79h-14.79c-1.36 0-2.32-.26-2.89-.79s-.85-1.18-.85-1.97c0-.83.28-1.5.85-2.01.57-.5 1.53-.76 2.89-.76h4.6v-33.86c0-3.9-1.42-7.2-4.27-9.89-2.85-2.7-6.66-4.04-11.44-4.04-3.64 0-6.79.73-9.47 2.2-2.67 1.47-6.49 5.12-11.44 10.95v34.65h6.25c1.31 0 2.26.25 2.83.76.57.5.85 1.17.85 2.01 0 .79-.28 1.45-.85 1.97-.57.53-1.51.79-2.83.79h-18.01c-1.31 0-2.26-.26-2.83-.79s-.85-1.18-.85-1.97c0-.83.28-1.5.85-2.01.57-.5 1.51-.76 2.83-.76h6.25v-45.83h-4.67c-1.31 0-2.26-.26-2.83-.79s-.85-1.21-.85-2.04c0-.79.28-1.45.85-1.97s1.51-.79 2.83-.79h10.19ZM1229.75 1487.47h-56.28c.96 7.14 3.96 12.9 8.97 17.26 5.02 4.36 11.23 6.54 18.64 6.54 4.12 0 8.44-.68 12.95-2.04s8.2-3.16 11.05-5.39c.83-.66 1.56-.99 2.17-.99.7 0 1.31.27 1.84.82s.79 1.19.79 1.94-.35 1.47-1.05 2.17c-2.1 2.19-5.84 4.24-11.21 6.15a49 49 0 0 1-16.54 2.86q-14.205 0-23.7-9.3c-6.33-6.2-9.5-13.71-9.5-22.52q0-12.03 8.91-20.64c5.94-5.74 13.29-8.61 22.06-8.61s16.46 2.95 22.29 8.84c5.83 5.9 8.7 13.53 8.61 22.91m-5.59-5.59c-1.1-6.09-3.98-11.05-8.65-14.86s-10.22-5.72-16.67-5.72-11.99 1.88-16.63 5.65c-4.65 3.77-7.54 8.74-8.68 14.92h50.63ZM1274.07 1457.68v13.94c7.19-6.49 12.57-10.66 16.14-12.52s6.87-2.79 9.89-2.79c3.29 0 6.34 1.11 9.17 3.32s4.24 3.89 4.24 5.03c0 .83-.27 1.52-.82 2.07s-1.24.82-2.07.82c-.44 0-.81-.08-1.12-.23s-.88-.65-1.71-1.48c-1.53-1.53-2.87-2.59-4.01-3.16s-2.26-.85-3.35-.85c-2.41 0-5.31.96-8.71 2.89s-9.28 6.64-17.65 14.14v30.24h24.46c1.36 0 2.32.25 2.89.76.57.5.85 1.17.85 2.01 0 .79-.28 1.45-.85 1.97-.57.53-1.53.79-2.89.79h-43.33c-1.31 0-2.26-.25-2.83-.76-.57-.5-.85-1.15-.85-1.94 0-.75.27-1.37.82-1.87s1.5-.76 2.86-.76h13.35v-46.02h-10.19c-1.31 0-2.26-.26-2.83-.79s-.85-1.21-.85-2.04c0-.79.27-1.45.82-1.97s1.5-.79 2.86-.79h15.71Z"/></svg>