<svg xmlns="http://www.w3.org/2000/svg" id="Layer_1" data-name="Layer 1" viewBox="0 0 25 25"><defs><style>.cls-1{fill:#77ad00}</style></defs><path d="M.76 14.72c-.61-3.03-.15-5.88 1.5-8.48C4.69 2.4 8.23.48 12.77.5c5.95.03 11 4.72 11.66 10.63.67 5.97-3.14 11.39-8.62 12.89-4.41 1.2-8.43.15-11.79-3.05-.79-.75-1.55-1.52-2.29-2.32-.17-.18-.16-.51-.24-.78.29.02.65-.06.87.08.95.6 1.83 1.32 2.79 1.89 1.46.88 3.11 1.17 4.8 1.28.39.02.81-.08 1.18-.22.51-.2.63-.69.27-1.11-.32-.37-.7-.69-1.07-1.01-.63-.55-1.16-1.14-1.08-2.05.02-.19.06-.39.15-.55.18-.33.5-.43.7-.08.66 1.15 1.81 1.68 2.88 2.32 1.11.66 2.14 1.43 2.83 2.55.18.3.4.2.63.09 2.96-1.43 4.82-3.74 5.37-6.97.9-5.3-2.62-10.12-7.95-11.01-4.25-.71-7.57.93-10.22 4.13C1.93 9.28.99 11.7.83 14.39c0 .11-.04.23-.06.34Z" class="cls-1"/><path d="M7.4 20.2c-1.22-.21-1.92-.88-2.15-1.99-.08-.37.15-.48.42-.34.28.15.56.38.74.64.36.51.64 1.08 1 1.69ZM5.63 19.63c-.97-.51-1.89-.89-2.25-1.92-.06-.16-.03-.36-.04-.53.2.03.43 0 .58.09.25.18.49.41.66.66.35.51.66 1.06 1.05 1.7M8.7 20.5c-.32-.09-.77-.08-.94-.29-.32-.39-.49-.91-.7-1.39 0-.01.29-.23.35-.19.25.15.51.32.68.55.27.37.47.8.7 1.2z" class="cls-1"/></svg>