<svg xmlns="http://www.w3.org/2000/svg" data-name="Layer 1" viewBox="0 0 2000 2000"><path d="M1199.5 1645.47h49.24c28.62-.03 56.9-6.16 82.97-17.97a152.34 152.34 0 0 0 62.54-54.16c50.47-75.83 33.73-161.88 18.1-242.63l-4.68-24.62c-4.43-24.62-9.36-48.63-15.02-73.86-5.66-25.24-12.31-52.69-18.71-78.79l-41.24-161.76a318.9 318.9 0 0 0 110.79-105.5l4.31-7.14 36.19 4.55c12.31 1.5 23.49-7.27 24.99-19.57 1.5-12.31-7.27-23.49-19.57-24.99l-21.54-2.71a274.9 274.9 0 0 0 16.74-100.33l39.88-12.31c11.8-3.84 18.24-16.52 14.4-28.31-3.84-11.8-16.52-18.24-28.31-14.4l-30.04 9.85a417.2 417.2 0 0 0-42.84-124.7l-8.86-183.3c-.53-12.29-10.92-21.83-23.22-21.3h-.17c-5.39.22-10.52 2.41-14.4 6.16v.25l-85.19 81.12a517.9 517.9 0 0 0-190.93-39.76 481.9 481.9 0 0 0-194.01 39.64l-95.16-89.13c-9.06-8.43-23.23-7.92-31.66 1.13-3.82 4.11-5.97 9.5-6 15.12l-1.11 190.07a380.7 380.7 0 0 0-47.64 126.8l-38.16-12.31c-11.8-3.84-24.47 2.61-28.31 14.4-3.84 11.8 2.61 24.47 14.4 28.31l49.24 15.76v3.08c.69 32.27 7.8 64.07 20.93 93.56l-30.78 4.19c-12.44 1.6-21.23 12.98-19.63 25.42s12.98 21.23 25.42 19.63l48.38-6.4c3.04 4.51 6.24 9.07 9.6 13.66a374.8 374.8 0 0 0 100.7 93.56l-67.58 246.2c-27.57 86.17-42.72 164.83-36.19 232.54a218.54 218.54 0 0 0 59.83 137.38H736.41c-73.86 0-130.49 0-186.25-54.04a145.9 145.9 0 0 1-44.81-110.79c.77-22.23 5.74-44.12 14.65-64.51a184.5 184.5 0 0 1 36.93-56.13 162.6 162.6 0 0 1 123.1-50.84c12.37.34 22.68-9.42 23.02-21.79s-9.42-22.68-21.79-23.02a207.04 207.04 0 0 0-156.22 64.38 231.3 231.3 0 0 0-46.66 67.58 222.4 222.4 0 0 0-18.22 81.12 190.2 190.2 0 0 0 58.35 144.77c68.94 66.84 133.81 66.84 217.52 66.84h286.46c3.63.98 7.45.98 11.08 0h154.74m160.03-403.4c5.17 23.14 10.22 48.13 14.65 72.38l4.68 24.62c14.03 72.14 28.81 148.95-11.45 209.27a107.3 107.3 0 0 1-44.19 38.53 160.7 160.7 0 0 1-65 14.28h-30.9v-245.1c-.92-12.41-11.72-21.72-24.13-20.8-11.13.82-19.98 9.67-20.8 20.8v244.97h-121.13v-244.97c0-12.44-10.09-22.53-22.53-22.53s-22.53 10.09-22.53 22.53v244.97h-79.65c-3.62.33-7.22-.83-9.97-3.2 0 0-3.2-1.97-3.82-2.34-50.23-31.64-73.86-78.54-79.65-135.41-5.79-61.55 8.49-134.43 34.35-214.69l65-237.34c6.28 2.83 12.31 5.42 18.83 7.88a410.4 410.4 0 0 0 76.32 23.39 426.6 426.6 0 0 0 84.2 9.73 451.2 451.2 0 0 0 180.71-35.58l38.41 151.05c7.39 28.93 13.42 54.41 18.59 77.55Zm73-411.41-115.84-14.4c-12.4-.96-23.24 8.32-24.2 20.72-.9 11.65 7.25 22.06 18.78 23.97l97.87 12.31a282.1 282.1 0 0 1-93.56 82.85 380.2 380.2 0 0 1-142.06 44.93 402.5 402.5 0 0 1-137.63-7.63v-.12a435 435 0 0 1-49.24-15.51 334.9 334.9 0 0 1-143.78-106.24l79.65-11.2c12.27-1.6 20.93-12.84 19.33-25.11s-12.84-20.93-25.11-19.33l-101.68 14.03a203.8 203.8 0 0 1-22.77-76.2l120.15 39.02c11.93 3.91 24.77-2.59 28.68-14.53 3.91-11.93-2.59-24.77-14.53-28.68l-132.83-43.09a333.1 333.1 0 0 1 46.04-123.1c2.03-3.38 3.1-7.26 3.08-11.2l.86-144.77 67.71 63.64a22.27 22.27 0 0 0 25.48 4.92 443 443 0 0 1 188.84-41.85 484.8 484.8 0 0 1 187.36 41.98c8.34 3.7 18.09 1.95 24.62-4.43l60.32-57.36 6.77 139.1c.16 3.26 1 6.44 2.46 9.36a372.4 372.4 0 0 1 40.99 121.99l-140.83 44.81c-11.8 3.81-18.27 16.46-14.46 28.25 3.81 11.8 16.46 18.27 28.25 14.47l128.89-41.49a231.1 231.1 0 0 1-17.6 79.89Z" style="fill:#d6d6d6"/><path d="M1096.07 775.04c-14.36-6.63-30.38 3.13-33.62 19.96-2.6 13.53 2.33 24.81 11.79 34.03 10.65 10.38 21.88 20.18 32.87 30.2.57.52 1.35.81 2.33 1.37 12.12-11.02 24.53-21.5 35.96-32.95 9.62-9.64 13.84-21.66 9.97-35.41-4.84-17.21-22.89-24.46-37.24-15.01-3.61 2.37-6.9 5.24-9.79 7.47-3.27-2.65-7.23-7.33-12.27-9.66" style="fill:#ff8fdf"/></svg>