<svg xmlns="http://www.w3.org/2000/svg" data-name="Layer 1" viewBox="0 0 1750 1750"><path d="M880.28 122.38c-405.62-3.35-744.86 330.27-755.03 727.3C114.81 1257.5 430.71 1620.8 860 1627.54c428.86 6.74 762.97-325.6 764.99-753.65 1.95-412.6-330.51-748.1-744.71-751.52Zm36.39 1382.91c.3-.37.59-.75.88-1.12-13.86.73-28.07 1.12-42.55 1.12-25.51 0-50.18-1.18-73.54-3.39-205.43-7.02-494.58-190.14-548.44-517.3-57.84-351.32 163.42-668.2 512.26-734.37 333.45-63.25 614.63 161.57 687.85 377.7-63.5-45.16-128.97-73.86-202.67-83.75-168.52-22.6-329.36 55.07-410.4 200.16-22.95 41.09-35.43 83.62-34.63 132.12 2.25 136.18.78 272.43.78 411.11h120.52v-262.84c90.56 67.66 185.56 93.48 289.13 91.16 106.68-2.39 195.24-45.9 273.39-118.18-13.5 218.45-264.32 505.86-572.57 507.57Zm297.74-509.84c-.44 0-.88.02-1.32.02-3.15 0-6.27-.1-9.37-.28-100.76-4.01-199.65-52.91-260.51-146.75-6.1-9.4-5.92-30.46.55-39.36 67.23-92.49 156.72-145.24 272.99-146.9 114.66 1.18 202.94 52.92 272.16 142.15 12.85 16.57 13.98 29.35 1.51 47.73-65.41 96.45-171.03 144.25-276.02 143.39Z" style="fill:#fff"/></svg>