<svg xmlns="http://www.w3.org/2000/svg" id="Layer_1" data-name="Layer 1" viewBox="0 0 500 200"><defs><style>.cls-1{fill:#c6c6c6}</style></defs><path d="M122.71 94.26c4.52-2.15 7.7-6.78 7.7-12.11 0-7.43-6.03-13.46-13.46-13.46-2.85 0-5.49.86-7.54 2.37v-1.02c0-7.43-6.03-13.46-13.46-13.46s-13.46 6.03-13.46 13.46v1.02c-2.05-1.51-4.68-2.37-7.54-2.37-7.43 0-13.46 6.03-13.46 13.46 0 5.33 3.18 9.96 7.7 12.11-4.52 2.15-7.7 6.73-7.7 12.11 0 7.43 6.03 13.46 13.46 13.46 2.85 0 5.49-.92 7.54-2.37v1.02c0 7.43 6.03 13.46 13.46 13.46s13.46-6.03 13.46-13.46v-1.02c2.05 1.45 4.68 2.37 7.54 2.37 7.43 0 13.46-6.03 13.46-13.46 0-5.38-3.18-9.96-7.7-12.11m-26.76 13.46c-7.43 0-13.46-6.03-13.46-13.46S88.52 80.8 95.95 80.8s13.46 6.03 13.46 13.46-6.03 13.46-13.46 13.46" style="fill:#ff6cce"/><path d="M191.27 54.06c-8.69 0-16.69 1.14-23.99 3.43s-14.04 5.63-20.21 10.02v9.5c2.29-1.71 5.1-3.31 8.43-4.78 3.33-1.48 6.97-2.78 10.94-3.89s8.07-1.97 12.31-2.6 8.42-.94 12.54-.94c5.5 0 11.07.54 16.71 1.63s10.88 2.56 15.71 4.4q7.245 2.775 11.82 6.18v-9.5c-6.17-4.39-12.91-7.73-20.21-10.02-7.31-2.29-15.31-3.43-24.03-3.43ZM25 99.36c0-8.69 1.14-16.69 3.43-23.99s5.63-14.04 10.02-20.21h9.5c-1.71 2.29-3.31 5.1-4.78 8.43-1.48 3.33-2.78 6.97-3.89 10.94s-1.97 8.07-2.6 12.31-.94 8.42-.94 12.54c0 5.5.54 11.07 1.63 16.71s2.56 10.88 4.4 15.71q2.775 7.245 6.18 11.82h-9.5c-4.39-6.17-7.73-12.91-10.02-20.21C26.14 116.1 25 108.1 25 99.38ZM296.95 145.94c-8.69 0-16.69-1.14-23.99-3.43s-14.04-5.63-20.21-10.02v-9.5c2.29 1.71 5.1 3.31 8.43 4.78 3.33 1.48 6.97 2.78 10.94 3.89s8.07 1.97 12.31 2.6 8.42.94 12.54.94c5.5 0 11.07-.54 16.71-1.63s10.88-2.56 15.71-4.4q7.245-2.775 11.82-6.18v9.5c-6.17 4.39-12.91 7.73-20.21 10.02-7.31 2.29-15.31 3.43-24.03 3.43ZM383.1 54.06c-8.69 0-16.69 1.14-23.99 3.43s-14.04 5.63-20.21 10.02v9.5c2.29-1.71 5.1-3.31 8.43-4.78 3.33-1.48 6.97-2.78 10.94-3.89s8.07-1.97 12.31-2.6 8.42-.94 12.54-.94c5.5 0 11.07.54 16.71 1.63s10.88 2.56 15.71 4.4q7.245 2.775 11.82 6.18v-9.5c-6.17-4.39-12.91-7.73-20.21-10.02-7.31-2.29-15.31-3.43-24.03-3.43ZM475 99.98c0-8.69-1.14-16.69-3.43-23.99s-5.63-14.04-10.02-20.21h-9.5c1.71 2.29 3.31 5.1 4.78 8.43 1.48 3.33 2.78 6.97 3.89 10.94s1.97 8.07 2.6 12.31.94 8.42.94 12.54c0 5.5-.54 11.07-1.63 16.71s-2.56 10.88-4.4 15.71q-2.775 7.245-6.18 11.82h9.5c4.39-6.17 7.73-12.91 10.02-20.21 2.29-7.31 3.43-15.31 3.43-24.03Z" class="cls-1"/></svg>