<svg xmlns="http://www.w3.org/2000/svg" id="Layer_1" data-name="Layer 1" viewBox="0 0 1500 250"><defs><style>.cls-1{fill:#fff}</style></defs><path d="M134.88 164.31c-2.7 0-5.02-.96-6.96-2.89q-2.91-2.895-2.91-6.99c0-4.095.97-5.01 2.91-6.94s4.26-2.89 6.96-2.89 5.02.96 6.96 2.89 2.91 4.24 2.91 6.94c0 1.81-.45 3.46-1.36 4.96s-2.1 2.69-3.58 3.58-3.13 1.33-4.94 1.33ZM196.46 164.9c-7.11 0-13.32-1.63-18.62-4.89s-9.42-7.82-12.35-13.68-4.4-12.71-4.4-20.55 1.46-14.75 4.4-20.64c2.93-5.89 7.05-10.47 12.35-13.73s11.51-4.89 18.62-4.89 13.32 1.63 18.62 4.89 9.42 7.84 12.35 13.73 4.4 12.77 4.4 20.64-1.47 14.69-4.4 20.55-7.05 10.42-12.35 13.68-11.51 4.89-18.62 4.89m.05-12.4c4.61 0 8.43-1.22 11.46-3.65 3.03-2.44 5.28-5.68 6.74-9.73s2.2-8.51 2.2-13.38-.73-9.29-2.2-13.36-3.71-7.33-6.74-9.8-6.85-3.7-11.46-3.7-8.49 1.23-11.53 3.7c-3.05 2.47-5.3 5.74-6.77 9.8-1.47 4.07-2.2 8.52-2.2 13.36s.73 9.33 2.2 13.38c1.46 4.05 3.72 7.29 6.77 9.73 3.04 2.44 6.89 3.65 11.53 3.65M263.03 118.33v45.04h-14.77V87.51h14.17v12.35h.94c1.74-4.02 4.49-7.24 8.22-9.68 3.74-2.44 8.45-3.65 14.15-3.65 5.17 0 9.7 1.08 13.58 3.23 3.88 2.16 6.9 5.36 9.04 9.61q3.21 6.375 3.21 15.75v48.25H296.8V116.9c0-5.5-1.43-9.8-4.3-12.91-2.86-3.11-6.8-4.67-11.8-4.67-3.42 0-6.46.74-9.11 2.22s-4.74 3.65-6.27 6.49c-1.53 2.85-2.3 6.28-2.3 10.3ZM346.1 62.23v101.14h-14.77V62.23zM373.41 75.81c-2.57 0-4.77-.86-6.59-2.59-1.83-1.73-2.74-3.79-2.74-6.2s.91-4.52 2.74-6.25 4.03-2.59 6.59-2.59 4.77.86 6.59 2.59c1.83 1.73 2.74 3.81 2.74 6.25s-.91 4.47-2.74 6.2-4.03 2.59-6.59 2.59m-7.46 87.56V87.51h14.77v75.86zM415.34 118.33v45.04h-14.77V87.51h14.17v12.35h.94c1.74-4.02 4.49-7.24 8.22-9.68 3.74-2.44 8.45-3.65 14.15-3.65 5.17 0 9.7 1.08 13.58 3.23 3.88 2.16 6.9 5.36 9.04 9.61q3.21 6.375 3.21 15.75v48.25h-14.77V116.9c0-5.5-1.43-9.8-4.3-12.91-2.86-3.11-6.8-4.67-11.8-4.67-3.42 0-6.46.74-9.11 2.22s-4.74 3.65-6.27 6.49c-1.53 2.85-2.3 6.28-2.3 10.3ZM516.33 164.9c-7.47 0-13.9-1.61-19.28-4.82s-9.53-7.74-12.45-13.58c-2.91-5.84-4.37-12.7-4.37-20.57s1.46-14.62 4.37-20.54c2.91-5.93 7-10.55 12.25-13.88 5.25-3.32 11.4-4.99 18.45-4.99 4.28 0 8.43.71 12.45 2.12 4.02 1.42 7.62 3.64 10.82 6.67 3.19 3.03 5.71 6.96 7.56 11.78 1.84 4.82 2.77 10.68 2.77 17.56v5.23h-60.3v-11.06h45.83q0-5.82-2.37-10.35c-2.37-4.53-3.8-5.39-6.64-7.14-2.85-1.74-6.18-2.62-10-2.62-4.15 0-7.76 1.01-10.84 3.04-3.08 2.02-5.45 4.66-7.11 7.9s-2.49 6.76-2.49 10.54v8.64c0 5.07.9 9.38 2.69 12.94s4.3 6.26 7.53 8.12q4.845 2.79 11.31 2.79c2.8 0 5.35-.4 7.65-1.21s4.3-2.02 5.98-3.63 2.96-3.61 3.85-5.98l13.98 2.52c-1.12 4.12-3.12 7.71-6 10.79s-6.49 5.47-10.82 7.16-9.26 2.54-14.79 2.54ZM610.02 114.23v12.79h-44.84v-12.79zM629.72 191.82V87.52h14.42v12.3h1.23c.86-1.58 2.09-3.41 3.7-5.48q2.415-3.105 6.72-5.46c2.86-1.56 6.65-2.35 11.36-2.35 6.12 0 11.59 1.55 16.4 4.64s8.58 7.56 11.33 13.38c2.75 5.83 4.12 12.84 4.12 21.04s-1.37 15.22-4.1 21.06-6.49 10.34-11.26 13.48-10.22 4.72-16.35 4.72c-4.61 0-8.37-.77-11.28-2.32q-4.365-2.325-6.84-5.43c-1.65-2.07-2.91-3.92-3.8-5.53h-.89v40.25h-14.77Zm14.47-66.38c0 5.33.77 10.01 2.32 14.03s3.79 7.15 6.72 9.41 6.52 3.38 10.77 3.38 8.1-1.18 11.06-3.53 5.21-5.56 6.74-9.61 2.3-8.61 2.3-13.68-.75-9.5-2.25-13.48-3.74-7.13-6.72-9.43-6.69-3.46-11.14-3.46-7.89 1.1-10.84 3.31-5.18 5.28-6.69 9.23c-1.52 3.95-2.27 8.56-2.27 13.83M715.55 163.37V87.51h14.27v12.05h.79c1.38-4.08 3.83-7.3 7.33-9.65 3.51-2.35 7.48-3.53 11.93-3.53.92 0 2.02.03 3.29.1s2.26.15 2.99.25v14.12c-.59-.16-1.65-.35-3.16-.57a33 33 0 0 0-4.54-.32c-3.49 0-6.59.73-9.31 2.2s-4.86 3.49-6.44 6.07-2.37 5.52-2.37 8.82v46.32h-14.77ZM798.92 164.9c-7.47 0-13.9-1.61-19.28-4.82s-9.53-7.74-12.45-13.58-4.37-12.7-4.37-20.57 1.46-14.62 4.37-20.54c2.91-5.93 7-10.55 12.25-13.88 5.25-3.32 11.4-4.99 18.45-4.99 4.28 0 8.43.71 12.44 2.12 4.02 1.42 7.62 3.64 10.82 6.67 3.19 3.03 5.71 6.96 7.56 11.78 1.84 4.82 2.77 10.68 2.77 17.56v5.23h-60.3v-11.06h45.83q0-5.82-2.37-10.35c-1.58-3.01-3.79-5.39-6.64-7.14-2.85-1.74-6.18-2.62-10-2.62-4.15 0-7.76 1.01-10.84 3.04-3.08 2.02-5.45 4.66-7.11 7.9s-2.49 6.76-2.49 10.54v8.64c0 5.07.9 9.38 2.69 12.94s4.3 6.26 7.53 8.12q4.845 2.79 11.31 2.79c2.8 0 5.35-.4 7.65-1.21s4.3-2.02 5.98-3.63 2.96-3.61 3.85-5.98l13.98 2.52c-1.12 4.12-3.12 7.71-6 10.79s-6.49 5.47-10.82 7.16-9.26 2.54-14.79 2.54ZM904.75 106.04l-13.38 2.37q-.84-2.565-2.64-4.89c-1.2-1.55-2.82-2.81-4.86-3.8s-4.59-1.48-7.65-1.48q-6.27 0-10.47 2.79c-2.8 1.86-4.2 4.26-4.2 7.19q0 3.81 2.82 6.12c1.88 1.55 4.91 2.82 9.09 3.8l12.05 2.77c6.98 1.61 12.18 4.1 15.61 7.46 3.42 3.36 5.14 7.72 5.14 13.09 0 4.54-1.31 8.59-3.93 12.12-2.62 3.54-6.26 6.31-10.92 8.32s-10.05 3.01-16.17 3.01c-8.49 0-15.43-1.82-20.79-5.46-5.37-3.64-8.66-8.81-9.88-15.53l14.27-2.17c.89 3.72 2.72 6.53 5.48 8.42 2.77 1.89 6.37 2.84 10.82 2.84 4.84 0 8.71-1.01 11.61-3.04s4.35-4.5 4.35-7.43c0-2.37-.88-4.36-2.64-5.98-1.76-1.61-4.45-2.83-8.07-3.65l-12.84-2.81c-7.08-1.61-12.31-4.18-15.68-7.7s-5.06-7.98-5.06-13.38c0-4.48 1.25-8.4 3.75-11.75s5.96-5.98 10.37-7.88c4.41-1.89 9.46-2.84 15.16-2.84 8.2 0 14.65 1.77 19.36 5.31s7.82 8.27 9.33 14.2ZM955.12 164.9c-7.47 0-13.9-1.61-19.28-4.82s-9.53-7.74-12.45-13.58-4.37-12.7-4.37-20.57 1.46-14.62 4.37-20.54c2.91-5.93 7-10.55 12.25-13.88 5.25-3.32 11.4-4.99 18.45-4.99 4.28 0 8.43.71 12.44 2.12 4.02 1.42 7.62 3.64 10.82 6.67 3.19 3.03 5.71 6.96 7.56 11.78 1.84 4.82 2.77 10.68 2.77 17.56v5.23h-60.3v-11.06h45.83q0-5.82-2.37-10.35c-1.58-3.01-3.79-5.39-6.64-7.14-2.85-1.74-6.18-2.62-10-2.62-4.15 0-7.76 1.01-10.84 3.04-3.08 2.02-5.45 4.66-7.11 7.9s-2.49 6.76-2.49 10.54v8.64c0 5.07.9 9.38 2.69 12.94s4.3 6.26 7.53 8.12q4.845 2.79 11.31 2.79c2.8 0 5.35-.4 7.65-1.21s4.3-2.02 5.98-3.63 2.96-3.61 3.85-5.98l13.98 2.52c-1.12 4.12-3.12 7.71-6 10.79s-6.49 5.47-10.82 7.16-9.26 2.54-14.79 2.54ZM1018.88 118.33v45.04h-14.77V87.51h14.17v12.35h.94c1.74-4.02 4.49-7.24 8.22-9.68 3.74-2.44 8.45-3.65 14.15-3.65 5.17 0 9.7 1.08 13.58 3.23 3.88 2.16 6.9 5.36 9.04 9.61q3.21 6.375 3.21 15.75v48.25h-14.77V116.9c0-5.5-1.43-9.8-4.3-12.91-2.86-3.11-6.8-4.67-11.8-4.67-3.42 0-6.46.74-9.11 2.22s-4.74 3.65-6.27 6.49c-1.53 2.85-2.3 6.28-2.3 10.3ZM1119.13 164.9c-7.34 0-13.65-1.67-18.94-5.01-5.28-3.34-9.34-7.96-12.17-13.85s-4.25-12.64-4.25-20.25 1.45-14.51 4.35-20.42 6.98-10.53 12.25-13.85 11.47-4.99 18.62-4.99c5.76 0 10.9 1.06 15.41 3.19 4.51 2.12 8.16 5.1 10.94 8.91s4.44 8.28 4.96 13.38h-14.37c-.79-3.56-2.59-6.62-5.41-9.19-2.81-2.57-6.58-3.85-11.28-3.85-4.12 0-7.71 1.08-10.79 3.24s-5.47 5.22-7.19 9.19c-1.71 3.97-2.57 8.65-2.57 14.05s.84 10.31 2.52 14.32q2.52 6.03 7.14 9.33c3.08 2.21 6.71 3.31 10.89 3.31 2.8 0 5.34-.52 7.63-1.56s4.21-2.53 5.78-4.47 2.66-4.28 3.29-7.01h14.37c-.53 4.91-2.12 9.28-4.79 13.14s-6.23 6.88-10.69 9.09-9.69 3.31-15.68 3.31ZM1198.84 164.9c-7.47 0-13.9-1.61-19.28-4.82s-9.53-7.74-12.45-13.58-4.37-12.7-4.37-20.57 1.46-14.62 4.37-20.54c2.91-5.93 7-10.55 12.25-13.88 5.25-3.32 11.4-4.99 18.45-4.99 4.28 0 8.43.71 12.44 2.12 4.02 1.42 7.62 3.64 10.82 6.67 3.19 3.03 5.71 6.96 7.56 11.78 1.84 4.82 2.77 10.68 2.77 17.56v5.23h-60.3v-11.06h45.83q0-5.82-2.37-10.35c-1.58-3.01-3.79-5.39-6.64-7.14-2.85-1.74-6.18-2.62-10-2.62-4.15 0-7.76 1.01-10.84 3.04-3.08 2.02-5.45 4.66-7.11 7.9s-2.49 6.76-2.49 10.54v8.64c0 5.07.9 9.38 2.69 12.94s4.3 6.26 7.53 8.12q4.845 2.79 11.31 2.79c2.8 0 5.35-.4 7.65-1.21s4.3-2.02 5.98-3.63 2.96-3.61 3.85-5.98l13.98 2.52c-1.12 4.12-3.12 7.71-6 10.79s-6.49 5.47-10.82 7.16-9.26 2.54-14.79 2.54ZM1279.59 121.69v-7.41c5.56 0 9.45-1.14 11.66-3.43s3.31-6.08 3.31-11.38V85.3c0-5.04.57-9.28 1.7-12.72s2.87-6.2 5.21-8.27 5.3-3.57 8.89-4.49 7.82-1.38 12.69-1.38v11.7q-5.73 0-8.94 1.68c-3.21 1.68-3.63 2.86-4.47 5.21s-1.26 5.36-1.26 9.01v17.98c0 2.54-.38 4.88-1.14 7.04q-1.14 3.24-4.2 5.61c-2.04 1.58-4.96 2.81-8.74 3.7-3.79.89-8.69 1.33-14.72 1.33Zm0 6.82v-14.22h13.68v14.22zm43.46 55.91q-7.305 0-12.69-1.38c-5.385-1.38-6.55-2.42-8.89-4.49s-4.07-4.83-5.21-8.27-1.7-7.68-1.7-12.72v-14.22c0-5.27-1.1-9.05-3.31-11.36s-6.09-3.46-11.66-3.46v-7.36c6.03 0 10.93.44 14.72 1.31 3.78.87 6.7 2.11 8.74 3.7 2.04 1.6 3.44 3.47 4.2 5.63s1.14 4.5 1.14 7.04v17.98c0 3.62.42 6.61 1.26 8.96s2.33 4.1 4.47 5.23c2.14 1.14 5.12 1.7 8.94 1.7v11.7ZM1331.54 58.43q7.305 0 12.69 1.38c5.385 1.38 6.55 2.42 8.89 4.49s4.07 4.83 5.21 8.27 1.7 7.68 1.7 12.72v14.17c0 5.3 1.1 9.1 3.31 11.38 2.21 2.29 6.09 3.43 11.66 3.43v7.41c-6.02 0-10.93-.44-14.72-1.33s-6.7-2.12-8.74-3.7q-3.06-2.37-4.2-5.61c-.76-2.16-1.14-4.5-1.14-7.04V86.02c0-3.65-.42-6.66-1.26-9.01s-2.33-4.09-4.47-5.21-5.12-1.68-8.94-1.68v-11.7Zm43.46 62.72v7.36c-5.56 0-9.45 1.15-11.66 3.46-2.21 2.3-3.31 6.09-3.31 11.36v14.22c0 5.04-.57 9.28-1.7 12.72-1.14 3.44-2.87 6.2-5.21 8.27s-5.3 3.57-8.89 4.49-7.82 1.38-12.69 1.38v-11.7c3.82 0 6.8-.57 8.94-1.7 2.14-1.14 3.63-2.88 4.47-5.23s1.26-5.34 1.26-8.96v-17.98c0-2.54.38-4.88 1.14-7.04s2.16-4.03 4.2-5.63 4.95-2.83 8.74-3.7 8.69-1.31 14.72-1.31Zm0-6.87v14.22h-13.68v-14.22z" class="cls-1"/></svg>