<svg xmlns="http://www.w3.org/2000/svg" data-name="Layer 1" viewBox="0 0 1500 250"><path d="M221.57 113.99c0 11.63-2.07 21.75-6.22 30.34-4.14 8.6-9.84 15.25-17.09 19.96s-15.59 7.06-25 7.06-17.75-2.35-25-7.06-12.94-11.36-17.07-19.96-6.19-18.71-6.19-30.34 2.06-21.75 6.19-30.34c4.13-8.6 9.82-15.25 17.09-19.96s15.59-7.06 24.97-7.06 17.75 2.35 25 7.06 12.95 11.36 17.09 19.96 6.22 18.71 6.22 30.34Zm-9.92 0c0-10-1.67-18.57-5.02-25.71-3.34-7.14-7.91-12.6-13.69-16.39q-8.67-5.67-19.68-5.67c-11.01 0-13.85 1.89-19.63 5.67s-10.35 9.23-13.71 16.36-5.04 15.7-5.04 25.74 1.67 18.56 5.02 25.68c3.34 7.13 7.91 12.59 13.69 16.39q8.67 5.7 19.68 5.7c11.01 0 13.91-1.89 19.71-5.67s10.37-9.24 13.71-16.39c3.34-7.14 5-15.71 4.96-25.71M253.9 117.48v52.35h-9.71V86.08h9.43v13.14h.87c1.96-4.29 5.02-7.73 9.19-10.33 4.16-2.6 9.31-3.9 15.46-3.9 5.63 0 10.59 1.17 14.86 3.52 4.27 2.34 7.6 5.79 9.98 10.33q3.57 6.81 3.57 16.74v54.25h-9.71v-53.65c0-6.87-1.92-12.3-5.75-16.3-3.84-4-8.97-6-15.4-6-4.4 0-8.31.95-11.72 2.84-3.42 1.89-6.12 4.61-8.1 8.15s-2.97 7.75-2.97 12.62ZM342.89 58.15v111.67h-9.71V58.15zM373.58 71.67q-3 0-5.13-2.04c-1.42-1.36-2.13-3.01-2.13-4.93s.71-3.57 2.13-4.93q2.13-2.04 5.13-2.04c3 0 3.71.68 5.13 2.04s2.13 3.01 2.13 4.93-.71 3.57-2.13 4.93q-2.13 2.04-5.13 2.04m-4.96 98.15V86.07h9.76v83.75zM413.82 117.48v52.35h-9.71V86.08h9.43v13.14h.87c1.96-4.29 5.02-7.73 9.19-10.33 4.16-2.6 9.31-3.9 15.46-3.9 5.63 0 10.59 1.17 14.86 3.52 4.27 2.34 7.6 5.79 9.98 10.33q3.57 6.81 3.57 16.74v54.25h-9.71v-53.65c0-6.87-1.92-12.3-5.75-16.3-3.84-4-8.97-6-15.4-6-4.4 0-8.31.95-11.72 2.84-3.42 1.89-6.12 4.61-8.1 8.15s-2.97 7.75-2.97 12.62ZM526.97 171.57c-7.82 0-14.58-1.83-20.28-5.48-5.71-3.65-10.11-8.72-13.22-15.21s-4.66-13.97-4.66-22.44 1.55-15.93 4.66-22.49 7.42-11.7 12.92-15.43c5.51-3.73 11.88-5.59 19.11-5.59 4.54 0 8.92.83 13.14 2.48s8.01 4.18 11.37 7.58 6.03 7.67 7.99 12.81q2.94 7.71 2.94 18.24v4.8h-65.43v-8.56h55.51c0-5.38-1.08-10.22-3.24-14.53s-5.16-7.72-9-10.22c-3.84-2.51-8.26-3.76-13.28-3.76-5.31 0-9.98 1.42-14.01 4.25-4.03 2.84-7.19 6.58-9.46 11.23s-3.43 9.74-3.46 15.27v5.13c0 6.65 1.15 12.46 3.46 17.42s5.59 8.81 9.84 11.53 9.29 4.09 15.1 4.09c3.96 0 7.44-.62 10.44-1.85 3-1.24 5.53-2.9 7.58-4.99s3.61-4.39 4.66-6.9l9.21 3c-1.27 3.53-3.35 6.78-6.24 9.76q-4.335 4.47-10.8 7.17c-4.31 1.8-9.26 2.7-14.86 2.7ZM586.29 122.71c0-13.09 1.65-25.45 4.96-37.08s8.05-22.54 14.23-32.72h8.83c-2.65 4.29-5.08 9.14-7.28 14.56q-3.3 8.13-5.7 17.34a162 162 0 0 0-3.71 18.84c-.87 6.42-1.31 12.77-1.31 19.06 0 8.4.76 16.87 2.29 25.41s3.64 16.65 6.35 24.32 5.82 14.36 9.35 20.07h-8.83c-6.18-10.22-10.92-21.14-14.23-32.77s-4.96-23.97-4.96-37.02ZM637.49 169.82V58.15h36.04c7.92 0 14.55 1.52 19.87 4.55 5.33 3.04 9.34 7.15 12.05 12.35s4.06 11.05 4.06 17.56-1.35 12.37-4.03 17.58c-2.69 5.22-6.69 9.34-12 12.38s-11.91 4.55-19.79 4.55h-28.35v-9.16h28.08c5.85 0 10.71-1.1 14.56-3.3s6.73-5.21 8.64-9.02 2.86-8.16 2.86-13.03-.95-9.22-2.86-13.03-4.8-6.82-8.67-9-8.77-3.27-14.69-3.27h-25.57v102.51zM731.49 169.82V86.07h9.43v12.87h.71c1.67-4.22 4.59-7.62 8.75-10.22s8.88-3.9 14.15-3.9c.8 0 1.69.02 2.67.05.98.04 1.8.07 2.45.11v9.87c-.44-.07-1.2-.18-2.29-.33s-2.27-.22-3.54-.22c-4.36 0-8.24.92-11.64 2.75-3.4 1.84-6.08 4.37-8.04 7.61s-2.94 6.92-2.94 11.07v54.09zM817.48 171.57c-7.82 0-14.58-1.83-20.28-5.48-5.71-3.65-10.11-8.72-13.22-15.21s-4.66-13.97-4.66-22.44 1.55-15.93 4.66-22.49 7.42-11.7 12.92-15.43c5.51-3.73 11.88-5.59 19.11-5.59 4.54 0 8.92.83 13.14 2.48s8.01 4.18 11.37 7.58 6.03 7.67 7.99 12.81q2.94 7.71 2.94 18.24v4.8h-65.43v-8.56h55.51c0-5.38-1.08-10.22-3.24-14.53s-5.16-7.72-9-10.22c-3.84-2.51-8.26-3.76-13.28-3.76-5.31 0-9.98 1.42-14.01 4.25-4.03 2.84-7.19 6.58-9.46 11.23s-3.43 9.74-3.46 15.27v5.13c0 6.65 1.15 12.46 3.46 17.42s5.59 8.81 9.84 11.53 9.29 4.09 15.1 4.09c3.96 0 7.44-.62 10.44-1.85 3-1.24 5.53-2.9 7.58-4.99s3.61-4.39 4.66-6.9l9.21 3c-1.27 3.53-3.35 6.78-6.24 9.76q-4.335 4.47-10.8 7.17c-4.31 1.8-9.26 2.7-14.86 2.7ZM929.04 104.44l-8.89 2.51c-.87-2.51-2.11-4.78-3.71-6.82s-3.68-3.65-6.24-4.85-5.73-1.8-9.52-1.8c-5.67 0-10.32 1.35-13.96 4.04s-5.45 6.16-5.45 10.41c0 3.6 1.24 6.52 3.74 8.75 2.49 2.24 6.33 4.01 11.53 5.32l12.65 3.11c7.02 1.71 12.28 4.42 15.79 8.12 3.51 3.71 5.26 8.36 5.26 13.96 0 4.73-1.31 8.92-3.93 12.6-2.62 3.67-6.26 6.55-10.93 8.64s-10.08 3.14-16.22 3.14c-8.18 0-14.92-1.84-20.23-5.53s-8.71-9.02-10.2-16l9.32-2.29c1.2 4.98 3.55 8.74 7.06 11.29 3.51 2.54 8.13 3.82 13.88 3.82 6.43 0 11.58-1.44 15.43-4.34 3.85-2.89 5.78-6.52 5.78-10.88 0-3.38-1.13-6.22-3.38-8.53s-5.67-4.01-10.25-5.1l-13.69-3.27c-7.27-1.74-12.65-4.51-16.14-8.29s-5.23-8.47-5.23-14.07c0-4.62 1.25-8.68 3.76-12.19s5.96-6.26 10.36-8.26 9.41-3 15.05-3c7.67 0 13.8 1.74 18.4 5.21s7.91 8.24 9.95 14.31ZM985.36 171.57c-7.82 0-14.58-1.83-20.28-5.48-5.71-3.65-10.11-8.72-13.22-15.21s-4.66-13.97-4.66-22.44 1.55-15.93 4.66-22.49 7.42-11.7 12.92-15.43c5.51-3.73 11.88-5.59 19.11-5.59 4.54 0 8.92.83 13.14 2.48s8.01 4.18 11.37 7.58 6.03 7.67 7.99 12.81q2.94 7.71 2.94 18.24v4.8H953.9v-8.56h55.51c0-5.38-1.08-10.22-3.24-14.53s-5.16-7.72-9-10.22c-3.84-2.51-8.26-3.76-13.28-3.76-5.31 0-9.98 1.42-14.01 4.25-4.03 2.84-7.19 6.58-9.46 11.23s-3.43 9.74-3.46 15.27v5.13c0 6.65 1.15 12.46 3.46 17.42s5.59 8.81 9.84 11.53 9.29 4.09 15.1 4.09c3.96 0 7.44-.62 10.44-1.85 3-1.24 5.53-2.9 7.58-4.99s3.61-4.39 4.66-6.9l9.21 3c-1.27 3.53-3.35 6.78-6.24 9.76q-4.335 4.47-10.8 7.17c-4.31 1.8-9.26 2.7-14.86 2.7ZM1050.35 117.48v52.35h-9.71V86.08h9.43v13.14h.87c1.96-4.29 5.02-7.73 9.19-10.33 4.16-2.6 9.31-3.9 15.46-3.9 5.63 0 10.59 1.17 14.86 3.52 4.27 2.34 7.6 5.79 9.98 10.33q3.57 6.81 3.57 16.74v54.25h-9.71v-53.65c0-6.87-1.92-12.3-5.75-16.3-3.84-4-8.97-6-15.4-6-4.4 0-8.31.95-11.72 2.84-3.42 1.89-6.12 4.61-8.1 8.15s-2.97 7.75-2.97 12.62ZM1162.35 171.57c-7.49 0-14-1.87-19.55-5.62-5.54-3.74-9.84-8.87-12.9-15.38-3.05-6.51-4.58-13.92-4.58-22.25s1.55-15.87 4.66-22.41 7.42-11.68 12.95-15.4c5.52-3.73 11.94-5.59 19.25-5.59q8.4 0 15.21 3.24c4.54 2.16 8.3 5.2 11.26 9.11s4.83 8.46 5.59 13.66h-9.81c-1.02-4.72-3.46-8.77-7.33-12.13s-8.79-5.04-14.75-5.04c-5.34 0-10.07 1.44-14.18 4.33s-7.32 6.91-9.62 12.05c-2.31 5.14-3.46 11.1-3.46 17.86s1.13 12.81 3.38 18.02c2.25 5.22 5.43 9.3 9.52 12.24s8.88 4.42 14.37 4.42q5.565 0 10.17-2.1t7.74-5.97c2.09-2.58 3.5-5.65 4.23-9.22h9.81q-1.095 7.575-5.37 13.5-4.275 5.91-11.07 9.3c-6.795 3.39-9.7 3.38-15.51 3.38ZM1248.94 171.57c-7.82 0-14.58-1.83-20.28-5.48-5.71-3.65-10.11-8.72-13.22-15.21s-4.66-13.97-4.66-22.44 1.55-15.93 4.66-22.49 7.42-11.7 12.92-15.43c5.51-3.73 11.88-5.59 19.11-5.59 4.54 0 8.92.83 13.14 2.48s8.01 4.18 11.37 7.58 6.03 7.67 7.99 12.81q2.94 7.71 2.94 18.24v4.8h-65.43v-8.56h55.51c0-5.38-1.08-10.22-3.24-14.53s-5.16-7.72-9-10.22c-3.84-2.51-8.26-3.76-13.28-3.76-5.31 0-9.98 1.42-14.01 4.25-4.03 2.84-7.19 6.58-9.46 11.23s-3.43 9.74-3.46 15.27v5.13c0 6.65 1.15 12.46 3.46 17.42s5.59 8.81 9.84 11.53 9.29 4.09 15.1 4.09c3.96 0 7.44-.62 10.44-1.85 3-1.24 5.53-2.9 7.58-4.99s3.61-4.39 4.66-6.9l9.21 3c-1.27 3.53-3.35 6.78-6.24 9.76q-4.335 4.47-10.8 7.17c-4.31 1.8-9.26 2.7-14.86 2.7ZM1327.78 122.71c0 13.09-1.65 25.45-4.96 37.08s-8.05 22.54-14.23 32.72h-8.83c2.65-4.29 5.08-9.14 7.28-14.56q3.3-8.13 5.7-17.34c1.6-6.14 2.84-12.43 3.71-18.87.87-6.43 1.31-12.78 1.31-19.03 0-8.4-.76-16.87-2.29-25.41s-3.64-16.65-6.35-24.32-5.83-14.36-9.35-20.07h8.83c6.18 10.21 10.92 21.14 14.23 32.77s4.96 23.97 4.96 37.02ZM1373.58 154.55l-.98 5.83c-.62 3.93-1.49 8.25-2.62 12.98-1.13 4.72-2.29 9.22-3.49 13.47s-2.24 7.67-3.11 10.25h-7.47c.47-2.47 1.08-5.62 1.83-9.43.74-3.82 1.52-8.04 2.32-12.68s1.53-9.41 2.18-14.31l.76-6.11zm-6.43-47.27c-2.15 0-3.99-.76-5.53-2.29-1.55-1.53-2.32-3.38-2.32-5.56s.77-3.99 2.32-5.53c1.54-1.54 3.39-2.32 5.53-2.32s4.04.77 5.56 2.32c1.53 1.55 2.29 3.39 2.29 5.53 0 1.45-.35 2.77-1.06 3.95a8.2 8.2 0 0 1-2.83 2.84c-1.18.71-2.5 1.06-3.95 1.06Z"/></svg>