<svg xmlns="http://www.w3.org/2000/svg" id="Layer_1" data-name="Layer 1" viewBox="0 0 25 25"><defs><style>.cls-1{fill:#ffc200}</style></defs><path d="M9.55 20.34h5.89c.28 0 .45-.17.45-.45v-1.3c0-1.97 2.87-3.24 2.87-6.76 0-3.7-2.51-6.18-6.26-6.18s-6.25 2.47-6.25 6.18 2.86 4.79 2.86 6.76v1.3c0 .28.18.45.45.45Z" class="cls-1"/><path d="M9.85 22.54h5.29c.42 0 .75-.34.75-.77s-.33-.77-.75-.77H9.85c-.42 0-.75.34-.75.77s.33.77.75.77M12.5 24.5c1.12 0 1.91-.51 1.99-1.3H10.5c.07.79.86 1.3 1.99 1.3Z"/><path d="M11.77.5h1.46v2.92h-1.46zM1.55 10.72h2.92v1.46H1.55zM20.53 10.72h2.92v1.46h-2.92zM3.233 4.67l1.032-1.032L6.457 5.83 5.425 6.862zM18.555 5.813l2.192-2.192 1.033 1.032-2.192 2.192z" class="cls-1"/></svg>