<svg xmlns="http://www.w3.org/2000/svg" xml:space="preserve" id="Layer_1" x="0" y="0" version="1.1" viewBox="0 0 25 25"><style>.st0{fill:#282829}.st0,.st2,.st3,.st4,.st5,.st6{fill-rule:evenodd;clip-rule:evenodd}.st2{fill:#fff}.st3{fill:#9b9da0}.st4{fill:#999b9e}.st5{fill:#97999c}.st6{fill:#95979a}.st10,.st11,.st12,.st13{fill-rule:evenodd;clip-rule:evenodd}.st7{fill:#939598}.st7,.st8,.st9{fill-rule:evenodd;clip-rule:evenodd}.st8{fill:#919396}.st9{fill:#8f9194}.st10{fill:#8d9092}.st11{fill:#8c8e90}.st12{fill:#8a8c8e}.st13{fill:#888a8c}.st14{fill:#86888a}.st14,.st15,.st16,.st17,.st18,.st19{fill-rule:evenodd;clip-rule:evenodd}.st15{fill:#848689}.st16{fill:#828487}.st17{fill:#808285}.st18{fill:#7e8083}.st19{fill:#7d7e81}.st20{fill:#7b7c7f}.st20,.st21,.st22,.st23,.st24,.st25{fill-rule:evenodd;clip-rule:evenodd}.st21{fill:#797a7d}.st22{fill:#77787b}.st23{fill:#757679}.st24{fill:#737577}.st25{fill:#717375}.st26{fill:#6f7173}.st26,.st27,.st28,.st29,.st30,.st31{fill-rule:evenodd;clip-rule:evenodd}.st27{fill:#6d6e71}.st28{fill:#6b6c6f}.st29{fill:#696a6d}.st30{fill:#67686b}.st31{fill:#656668}.st32{fill:#636466}.st32,.st33,.st34,.st35,.st36,.st37{fill-rule:evenodd;clip-rule:evenodd}.st33{fill:#616264}.st34{fill:#5f6062}.st35{fill:#5c5d60}.st36{fill:#5a5b5d}.st37{fill:#58595b}.st38{fill:#565759}.st38,.st39,.st40,.st41,.st42,.st43{fill-rule:evenodd;clip-rule:evenodd}.st39{fill:#545456}.st40{fill:#515254}.st41{fill:#4f4f51}.st42{fill:#4d4d4f}.st43{fill:#4a4b4c}.st44{fill:#48484a}.st44,.st45,.st47{fill-rule:evenodd;clip-rule:evenodd}.st47{fill:#464547}.st48{fill:#434345}.st48,.st50,.st52,.st54,.st56,.st60{fill-rule:evenodd;clip-rule:evenodd}.st50{fill:#3d3d3e}.st52{fill:#333334}.st54{fill:#222223}.st56{fill:#141414}.st60{fill:#9d9fa2}</style><path d="M4.1 12h.5zM23 20.4c-.3-.6-.6-1.1-1-1.7s-.9-1.2-1.4-1.7-1-.9-1.5-1.3c-1.1-.8-2.5-1.4-4.1-1.9q-.9-.3-1.8-.3h-.8v-.1l1.2-1.4s0-.1.1-.1c.5-.6 1-1 1.4-1.3.9.5 1.8.6 2.5.4.6-.2 1.3-.6 2-1.3s1-1.2.8-1.6q-.3-.9-1.5-.9c-.4 0-.8.2-1.4.5-.4.3-.8.5-1 .7-1.7-.8-3-1.2-3.7-1.4-2.9-.5-5.3.4-7.3 2.7-1.1 1.3-1.6 2-1.5 2.2l.1.1h.6c.2 0 .3-.1.6-.2 1.2-.4 1.8-.7 1.7-.9v-.7c0-.5.4-1 1.1-1.5 1.1-.7 2.2-.9 3.2-.4.3.2.8.4 1.4.8.7.5 1.2.8 1.5 1v.1c-.6.5-1.2 1.1-1.8 1.7-.3.3-.5.6-.8.9l-.6.9c-.7.1-1.5.4-2.6.9-1.6.8-2.9 1.5-3.8 2.2-.1.1-.2.2-.3.2-1.2.9-2 2-2.6 3.1l-.1.4c0 .2 0 .3.1.3.8.3 1.9.1 3.4-.6 1.1-.5 2.2-1.3 3.4-2.4l.9-.9c.4-.4.7-.8 1.1-1.3l1.5-.1c1.2 0 2.5.2 3.8.4s2.3.5 2.9.9c.3.2.5.3.7.5.4.4.5.7.4 1.1l-.1.6c0 .1-.1.2 0 .3.1.4.6.8 1.3 1.4.7.5 1.3 1 1.9 1.2.3.1.5.2.6 0 0-.2-.1-.7-.5-1.5M5.1 11.7l-.1.1-.5.1c-.2 0-.2 0-.1-.1l.4-.2c.1-.1.2-.1.2-.1.1 0 .1.1.1.2m.5-.8c.1-.1.2-.4.4-1q.3-.75.6-.9c.1 0 .1 0 0 .3-.1.4-.2.7-.3 1s-.1.4-.2.5c-.2.2-.3.3-.5.3zm-.4.7c0-.1 0-.1.1-.1l.4-.2c.1-.1.2-.1.2 0s0 .1-.2.2c-.3.1-.4.1-.5.1m1.4-.6-.4.2q-.15.15-.6.3h-.1l.3-.1c.2-.1.3-.2.4-.3 0-.1.2-.2.3-.3.2-.1.3-.2.3-.2 0 .2 0 .3-.2.4m2.9-3c-.5.2-1 .4-1.4.7-.3.1-.5.2-.6.2 0 0 .1-.1.5-.4.2-.1.5-.3.8-.4l.6-.2s.1 0 .1.1m12 12.1c.1.1.1.2 0 .1-.2 0-.3-.1-.5-.3s-.3-.3-.3-.4c-.1-.2-.1-.4 0-.4s.1 0 .2.1zm-1.8-3.4c.1.1.3.2.4.3s.3.3.4.5c.4.5.5 1 .4 1.3l-.1.1c-.1 0-.1-.1-.2-.4-.1-.4-.2-.7-.3-1-.1-.1-.2-.3-.4-.5l-.1-.1c-.1-.2-.2-.2-.1-.2m-1.4-.9q.15 0 .6.3c.3.2.5.4.6.5s-.1 0-.7-.4c-.3-.3-.5-.4-.5-.4M13.6 14c.6 0 1.3.2 2.2.5s1.7.7 2.3 1c.3.2.3.2.2.2s-.4-.1-.8-.3c-1-.5-2.2-.9-3.5-1.1-1.5-.1-2.3-.2-2.3-.2 0-.1.1-.1.3-.2.4 0 .9 0 1.6.1m4.5-3.5q-.6.3-1.2.3c-.1 0-.1 0 0-.1 0-.1.1-.1.2-.1l.7-.2.3-.1h.2c-.1 0-.1.1-.2.2m-.4-1.2h.6c.1 0 .1 0 .1.1zc0 .1-.1 0 0 0m1.4.4c0 .1-.3.3-.7.5 0-.1 0-.1-.1-.2.6-.2.9-.4.8-.3m-.1-.5c-.2.1-.4.1-.5.1l-.1-.1v-.1c.2 0 .5-.1 1-.4h.2c-.1.3-.3.4-.6.5m.7-.7c-.2.2-.7.4-1.3.4s-.9 0-1-.1.1-.2.4-.3c.4-.2.7-.3 1.1-.3.4-.1.6 0 .8.1.1-.1.1 0 0 .2m-1.2-1.1h.7c.4 0 .6.2.7.3 0 .1 0 .1-.1.1s-.2-.1-.3-.2-.2-.1-.5-.1h-.5zm-1.2 1.1c.3-.2.6-.4 1-.5.2-.1.3 0 .2.1-.5.2-.8.3-1 .4-.1.1-.2.1-.3.1zm-6.2-1.3c.7 0 1.6.2 2.5.5q.75.3 2.1.9c.9.4 1.5.6 1.9.6.1.1 0 .1-.1.1-.7 0-1.4-.2-2.1-.5l-1.9-.9c-.8-.2-1.6-.5-2.4-.7q-.15 0 0 0m.7 1.2c-.4-.3-.6-.5-.6-.5h.3c.2 0 .4.1.6.2 1 .6 1.7 1 2.1 1.1.6.2 1.3.5 2 .9.2.1.2.3.2.6l.1.3c0 .1 0 .2-.2.1-.2 0-.5-.1-1-.3s-.9-.4-1.1-.5zm2 3.1.6-.8c0-.1 0-.3-.2-.5q.3.3.6.3c.1 0 0 .1-.1.2l-.7.7c-.2.2-.4.4-.5.6-.1.1-.1.1-.1.2-.2.3-.3.4-.2.3 0-.1.1-.2.3-.4 0-.3.2-.4.3-.6M12 13.4c.1 0 .3-.1.5-.3l-.4.4-1.1.1zm-7.1 3.8c.1 0 .2-.1.3-.2 1.1-.6 2.2-1 3.2-1.2.1 0 0 .1-.2.2l-1.3.4c-.5.2-1 .4-1.4.6-.9.4-1.5.9-2 1.4 0-.2.4-.6 1.4-1.2M3 20.8l-.6.1-.6-.1c-.1-.1-.1-.2-.1-.4.1-.3.2-.6.4-.8.1-.2.2-.3.2-.2s0 .3-.1.6c-.1.2-.1.4 0 .5.1.2.4.3.8.3q.15 0 0 0m.1-.4c-.2 0-.3-.1-.2-.3H3c.1.1.2.1.3.1s.1 0 0 .1h-.2zm2.9-.7c-1.1.6-2 1-2.7 1.1.9-.3 1.8-.7 2.7-1.3.8-.5 1.7-1.2 2.7-1.9-.9.8-1.7 1.5-2.7 2.1M8.2 17c-1 1-2.1 1.8-3.3 2.6-.9.5-1.5.7-1.8.5l-.2-.1c-.1-.7.4-1.5 1.6-2.2.4-.2.8-.5 1.2-.7.5-.3 1.1-.5 1.8-.7.4-.1.9-.3 1.5-.4h.2zm13.1 3.7c-.8-.5-1.3-.9-1.5-1.3 0-.1 0-.2.1-.5s.1-.5.1-.7c-.1-.3-.3-.7-.7-1-.2-.1-.3-.1-.3-.2-.7-.4-1.6-.8-2.7-1-1.2-.3-2.4-.4-3.5-.5l-2.9.1-.8.1c-.2 0-.3 0-.2-.1 0-.1.3-.2.7-.3q.75-.3 1.2-.3c1-.1 2.1-.1 3.1 0 .6.1 1.3.2 2.1.5.9.2 1.5.4 1.9.7.6.3 1.1.6 1.4.9l.3.3c.4.5.6.9.5 1.4 0 .4 0 .6.1.8.2.3.6.6 1.2 1.1.6.4.9.6.9.7.1 0-.3-.2-1-.7m1.6.9c-.1 0-.2-.1-.3-.2s-.1-.2-.1-.2l.2.1c.3.3.3.4.2.3" class="st0"/><path d="M7.5 8.9s.2-.1.5-.3q.6-.3 1.5-.6c0-.1 0-.1-.1-.1l-.6.2c-.3.1-.6.3-.8.4-.4.3-.5.4-.5.4" style="fill-rule:evenodd;clip-rule:evenodd;fill:#adafb2"/><path d="M6.7 9.3q.15-.3 0-.3c-.2.2-.4.4-.6.9s-.4.9-.4 1v.1c.1 0 .3-.1.5-.3.1-.1.2-.3.2-.5q0-.3.3-.9" class="st2"/><path d="m14.4 10.3.4.2c-.1-.1-.3-.2-.4-.2" class="st3"/><path d="m14.3 10.2.7.4c-.1 0-.1-.1-.2-.1l-.4-.2c0-.1-.1-.1-.1-.1" class="st4"/><path d="m14.2 10.2.9.5c-.1 0-.1 0-.1-.1zm0-.1 1.1.6s-.1 0-.1-.1z" class="st4"/><path d="m14.1 10.1 1.3.6h-.1l-1.1-.6z" class="st5"/><path d="m14.1 10 1.4.8-.1-.1-1.3-.6z" class="st5"/><path d="m14 10 1.6.8h-.1z" class="st6"/><path d="m14 10 1.7.8h-.1z" class="st6"/><path d="m13.9 9.9 1.9 1-.1-.1L14 10z" class="st6"/><path d="m13.9 9.9 2 1h-.1z" class="st7"/><path d="m13.8 9.9 2.1 1h-.1z" class="st7"/><path d="m13.8 9.8 2.2 1.1h-.1zm-.1 0L16 11h-.1z" class="st8"/><path d="m13.7 9.8 2.4 1.2H16z" class="st8"/><path d="m13.6 9.7 2.5 1.3H16zm0 0 2.6 1.3z" class="st9"/><path d="m13.5 9.6 2.7 1.4zm0 0 2.8 1.4zm-.1 0 2.9 1.4z" class="st10"/><path d="m13.4 9.5 3 1.5zm-.1 0 3 1.5z" class="st11"/><path d="m13.2 9.5 3.1 1.6zm0-.1 3.2 1.6zm-.1 0 3.3 1.6z" class="st12"/><path d="m13.1 9.3 3.3 1.7zm-.1 0 3.4 1.7zm0 0 3.5 1.7z" class="st13"/><path d="m12.9 9.2 3.5 1.8zm0 0 3.6 1.8z" class="st14"/><path d="m12.8 9.2 3.7 1.8-3.6-1.8z" class="st15"/><path d="m12.8 9.1 3.7 1.9-3.7-1.8z" class="st15"/><path d="m12.7 9.1 3.8 1.9-3.7-1.9z" class="st15"/><path d="m12.7 9 3.8 2-3.8-1.9z" class="st16"/><path d="m12.6 9 3.9 2-3.8-2z" class="st16"/><path d="m12.6 9 3.9 1.9v.1z" class="st17"/><path d="m12.5 8.9 4 2L12.6 9zm0 0 4 2z" class="st17"/><path d="m12.4 8.9 4.1 2-4-2z" class="st18"/><path d="m12.4 8.8 4.1 2.1-4.1-2z" class="st18"/><path d="m12.3 8.8 4.2 2.1zm0 0 4.3 2.1zm-.1-.1 4.3 2.2-4.2-2.1z" class="st19"/><path d="m12.2 8.7 4.3 2.2zm-.1-.1 4.4 2.2v.1l-4.3-2.2z" class="st20"/><path d="m12.1 8.6 4.4 2.2zm-.1 0 4.5 2.2-4.4-2.2z" class="st21"/><path d="m12 8.5 4.5 2.3L12 8.6z" class="st21"/><path d="m11.9 8.5 4.6 2.3L12 8.5zm0 0 4.6 2.3z" class="st22"/><path d="m11.8 8.4 4.7 2.4-4.6-2.3z" class="st22"/><path d="m11.7 8.4 4.8 2.3v.1l-4.7-2.4z" class="st23"/><path d="m11.7 8.3 4.8 2.4-4.8-2.3z" class="st23"/><path d="m11.7 8.3 4.7 2.4h.1z" class="st24"/><path d="m11.6 8.3 4.8 2.4-4.7-2.4z" class="st24"/><path d="m11.6 8.2 4.8 2.5-4.8-2.4z" class="st24"/><path d="m11.5 8.2 4.9 2.5-4.8-2.5zm0 0 4.9 2.5z" class="st25"/><path d="m11.4 8.2 5 2.4v.1l-4.9-2.5z" class="st26"/><path d="m11.4 8.1 5 2.5-5-2.4zm0 0 5 2.5z" class="st26"/><path d="m11.3 8.1 5.1 2.5-5-2.5zm0-.1 5.1 2.5zc0 .1 0 0 0 0" class="st27"/><path d="m11.3 8 5.1 2.6zm0 0 5.1 2.6zm-.1 0 5.1 2.6z" class="st28"/><path d="m11.2 7.9 5.2 2.6zq0 .15 0 0m0 0 5.2 2.6z" class="st29"/><path d="m11.2 7.9 5.2 2.6zm0 0 5.2 2.6zm0 0 5.2 2.6z" class="st30"/><path d="m11.2 7.9 5.2 2.6zm0 0 5.2 2.6z" class="st31"/><path d="m11.2 7.9 5.2 2.5v.1zm0 0 5.2 2.5z" class="st32"/><path d="m11.3 7.9 5.1 2.5-5.2-2.5z" class="st32"/><path d="m11.3 7.9 5.1 2.5zm0 0 5.1 2.5zm0 0 5.1 2.5z" class="st33"/><path d="m11.3 7.9 5.1 2.5zm0 0 5.1 2.5z" class="st34"/><path d="m11.4 7.9 5 2.5-5.1-2.5z" class="st35"/><path d="m11.4 7.9 5 2.4v.1zm0 0 5 2.4z" class="st35"/><path d="m11.4 7.8 5 2.5-5-2.4zm0 0 5 2.5z" class="st36"/><path d="m11.5 7.8 4.8 2.5h.1l-5-2.5zm0 0 4.8 2.5zm0 0 4.8 2.5z" class="st37"/><path d="m11.5 7.8 4.8 2.5zm0 0 4.8 2.4v.1z" class="st38"/><path d="m11.6 7.8 4.7 2.4-4.8-2.4zm0 0 4.7 2.4zm0 0 4.7 2.4z" class="st39"/><path d="m11.6 7.9 4.7 2.3-4.7-2.4z" class="st40"/><path d="m11.7 7.9 2 1s.1 0 .1.1l2.5 1.3z" class="st40"/><path d="m11.7 7.9 1.5.7c.2.1.3.2.5.2zM14.1 9l2.2 1.1-2.5-1.3c.1.2.2.2.3.2" class="st41"/><path d="m11.7 7.9 1.2.6c.1 0 .2.1.3.1zm2.5 1.2 2.1 1.1L14.1 9c0 .1 0 .1.1.1" class="st41"/><path d="m11.8 7.9.9.5c.1 0 .1.1.2.1zm2.5 1.2 2 1L14.2 9c0 .1.1.1.1.1" class="st41"/><path d="m11.8 7.9.7.4c.1 0 .1.1.2.1zm2.6 1.3 1.9.9-2-1z" class="st42"/><path d="m11.9 7.9.5.2c.1 0 .1.1.2.1zc-.1 0 0 0 0 0m2.6 1.3 1.7.9-1.9-.9z" class="st42"/><path d="m11.9 7.9.3.1.2.1zm2.8 1.4 1.6.8-1.7-.9c0 .1 0 .1.1.1" class="st42"/><path d="m14.8 9.4 1.4.7-1.6-.8c.1 0 .2 0 .2.1m-2.6-1.3-.3-.1c.1-.1.2 0 .3.1" class="st43"/><path d="m15 9.4 1.2.6-1.4-.7c.1.1.1.1.2.1" class="st43"/><path d="m15.2 9.5 1 .5-1.2-.6c.1.1.1.1.2.1" class="st44"/><path d="m15.5 9.7.7.3-1-.5c.1.1.2.1.3.2" class="st44"/><path d="m16.2 10-.7-.3c.2.1.4.2.7.3" class="st44"/><path d="M11.1 7.2q-.15 0 0 0 1.2.3 2.4.9l1.9.9c.7.3 1.3.4 2.1.5.2 0 .2 0 .1-.1-.4 0-1-.3-1.9-.6q-1.35-.6-2.1-.9c-.9-.5-1.7-.7-2.5-.7" class="st2"/><path d="M5.3 11.4c-.1 0-.1.1-.1.1s.2 0 .5-.2c.1 0 .2-.1.2-.2s-.1 0-.2 0z" class="st14"/><path d="M5.4 11.6h.1q.45-.15.6-.3l.5-.3c.2-.1.3-.2.2-.3 0 0-.1 0-.3.2q-.3.15-.3.3c0 .1-.2.2-.4.3zm-.3.1v-.2s-.1 0-.4.1l-.4.2c-.1.1 0 .1.1.1l.5-.1z" class="st45"/><path d="M8.2 16c.3-.1.4-.2.2-.2-1.1.2-2.3.7-3.5 1.4-.9.5-1.4 1-1.4 1.2.7-.8 1.8-1.5 3.4-2z" style="fill-rule:evenodd;clip-rule:evenodd;fill:#9fa1a4"/><path d="m22.2 21.2.2.1c-.1 0-.1 0-.2-.1" class="st13"/><path d="m22 21.1.3.1-.2-.1c0 .1 0 .1-.1 0" class="st13"/><path d="m21.9 21.1.4.1h.1l-.4-.1z" class="st14"/><path d="m21.7 21 .4.2.1.1-.4-.1c0-.2 0-.2-.1-.2" class="st14"/><path d="m21.6 20.9.5.2.1.1-.5-.2z" class="st15"/><path d="m21.5 20.8.5.2.1.1-.5-.2z" class="st15"/><path d="m21.4 20.8.6.2s.1 0 .1.1l-.5-.2z" class="st15"/><path d="m21.3 20.7.6.2.1.1-.6-.2z" class="st16"/><path d="m21.2 20.6.6.2.1.1-.6-.2c-.1 0-.1 0-.1-.1" class="st16"/><path d="m21.1 20.6.7.3.1.1-.6-.2zm-.1-.1.7.3.1.1z" class="st17"/><path d="m20.9 20.4.7.3.1.1zq0 .15 0 0" class="st17"/><path d="m20.8 20.4.7.3.1.1z" class="st18"/><path d="m20.7 20.3.7.3.1.1zc.1.1 0 0 0 0" class="st18"/><path d="M8.8 15.8H9zq.15 0 0 0m11.8 4.5.7.3.1.1zq.15 0 0 0M8.9 15.7l.2.1H9zq-.15.15 0 0m11.7 4.5.7.3.1.1z" class="st19"/><path d="m8.9 15.7.3.1zm11.6 4.5.7.3.1.1zc.1 0 0 0 0 0" class="st19"/><path d="m8.9 15.7.3.1h-.1zm11.5 4.4.7.3.1.1zq.15 0 0 0" class="st20"/><path d="m8.9 15.7.3.1h-.1zm11.5 4.4.7.3.1.1z" class="st20"/><path d="m8.9 15.7.3.1h-.1zM20.3 20l.7.3.1.1zq.15 0 0 0" class="st21"/><path d="m9 15.7.4.1h-.1zq-.15 0 0 0M20.3 20l.7.3h.1zM9 15.6l.4.1h-.1zm11.2 4.3.7.3h.1zc.1.1.1 0 0 0" class="st21"/><path d="m9 15.6.4.2h-.1zm11.2 4.3.7.3h.1z" class="st22"/><path d="m9 15.6.4.2h-.1zm11.2 4.2.6.2h.1zq0 .15 0 0" class="st22"/><path d="m9.1 15.6.5.2h-.1zm11 4.2.6.2h.1z" class="st22"/><path d="m9.1 15.6.5.2h-.1zm11 4.2.6.2h.1z" class="st23"/><path d="m9.1 15.6.5.2h-.1zM20 19.7l.6.2h.1zq.15 0 0 0" class="st23"/><path d="m9.2 15.5.5.2h-.1zM20 19.7l.6.2z" class="st24"/><path d="m9.2 15.5.5.2h-.1zM20 19.6l.6.2zq0 .15 0 0" class="st24"/><path d="m9.2 15.5.5.2h-.1zM20 19.6l.5.2z" class="st24"/><path d="m9.3 15.5.6.2zm10.6 4.1.5.2zM9.3 15.5l.6.2h-.1zm10.6 4 .5.2zc0 .1 0 0 0 0" class="st25"/><path d="m9.3 15.5.6.2h-.1zm10.6 4 .5.2zm-10.5-4 .6.2h-.1zm10.5 4 .5.2z" class="st26"/><path d="m9.4 15.5.6.2h-.1zm10.4 3.9.5.2z" class="st26"/><path d="m9.4 15.4.7.3H10zm10.4 4 .4.2zm-10.3-4 .7.3h-.1zm10.3 4 .4.2z" class="st27"/><path d="m9.5 15.4.7.3h-.1zm10.3 3.9.4.2z" class="st28"/><path d="m9.5 15.4.7.3h-.1zm10.3 3.9.4.1zM9.6 15.4l.8.3h-.1zm10.2 3.9.4.1z" class="st28"/><path d="m9.6 15.4.8.3h-.1zm10.2 3.8.3.1zq0 .15 0 0M9.7 15.4l.8.3h-.1zm10.1 3.8.3.1z" class="st29"/><path d="m9.7 15.3.9.3h-.1zm10.1 3.9.3.1z" class="st30"/><path d="m9.7 15.3.9.3h-.1zm10.1 3.9.3.1zm-10-3.9.9.3h-.1zm10 3.8.3.1z" class="st30"/><path d="m9.8 15.3.9.4h-.1zm10 3.8.3.1z" class="st31"/><path d="m9.8 15.3 1 .4h-.1zm10 3.8.3.1z" class="st31"/><path d="m9.9 15.3 1 .4h-.1zm9.9 3.8.3.1z" class="st32"/><path d="m9.9 15.3 1 .4h-.1zm9.9 3.7.3.1zM10 15.3l1 .4h-.1zm9.8 3.7.2.1z" class="st32"/><path d="m10 15.2 1.1.4H11zm9.8 3.8.2.1z" class="st33"/><path d="m10 15.2 1.1.4H11zm9.8 3.8.2.1zm-9.7-3.8 1.1.4h-.1zm9.8 3.7.2.1z" class="st33"/><path d="m10.1 15.2 1.1.4h-.1zm9.8 3.7.2.1z" class="st34"/><path d="m10.1 15.2 1.2.4h-.1zm9.8 3.7.2.1z" class="st34"/><path d="m10.2 15.2 1.2.5h-.1zm9.7 3.7.2.1z" class="st35"/><path d="m10.2 15.2 1.2.5h-.1zm9.7 3.7.2.1zm-9.6-3.7 1.2.5h-.1zm9.6 3.6.2.1z" class="st35"/><path d="m10.3 15.2 1.3.5h-.1zm9.6 3.6.2.1zm-9.6-3.7 1.3.5h-.1zm9.6 3.7.2.1z" class="st36"/><path d="m10.4 15.1 1.3.5h-.1zm9.5 3.7.2.1z" class="st37"/><path d="m10.4 15.1 1.3.5h-.1zm9.5 3.6.2.1zm-9.4-3.6 1.3.5h-.1zm9.4 3.6.2.1z" class="st37"/><path d="m10.5 15.1 1.4.5h-.1zm9.4 3.6.2.1zm-9.3-3.6 1.4.5h-.1zm9.3 3.6.2.1z" class="st38"/><path d="m10.6 15.1 1.4.5h-.1zm9.3 3.5.2.1z" class="st39"/><path d="m10.7 15.1 1.4.5H12zq-.15 0 0 0m9.2 3.5.2.1z" class="st39"/><path d="m10.7 15.1 1.4.5H12zm9.2 3.5.1.1z" class="st39"/><path d="m10.8 15.1 1.4.5h-.1zm9.1 3.5.1.1zM10.8 15l1.4.5h-.1zm9.2 3.5.1.1z" class="st40"/><path d="m10.9 15 1.4.6h-.1zm9.1 3.5.1.1z" class="st41"/><path d="m10.9 15 1.5.6h-.1zm9.1 3.5.1.1zM11 15l1.5.6h-.1zm9 3.5.1.1z" class="st41"/><path d="m11 15 1.5.6h-.1zm9 3.4.1.1zM11.1 15l1.5.6h-.1zm8.9 3.4.1.1z" class="st42"/><path d="m11.1 15 1.5.6h-.1zm8.9 3.4.1.1z" class="st42"/><path d="m11.2 15 1.5.6h-.1zm8.8 3.3.1.1zM11.3 15l1.5.6h-.1zm8.7 3.3h.1z" class="st43"/><path d="m11.3 15 1.5.6h-.1zm8.7 3.3h.1zM11.4 15l1.5.6zm8.5 3.3h.1zc.1 0 0 0 0 0M11.4 15l1.5.6h-.1zm8.5 3.2h.1zc0 .1 0 0 0 0" class="st44"/><path d="m11.5 15 1.6.6H13zm8.4 3.2h.1z" class="st47"/><path d="m11.5 15 1.6.6H13zm8.4 3.2h.1z" class="st47"/><path d="m11.6 15 1.6.6h-.1zm8.3 3.1h.1zq0 .15 0 0M11.7 15l1.6.6h-.1zm8.2 3.1h.1z" class="st48"/><path d="m11.7 15 1.7.6h-.1zm8.2 3.1h.1z" class="st48"/><path d="m11.8 15 1.7.6h-.1zm8.1 3.1h.1z" style="fill-rule:evenodd;clip-rule:evenodd;fill:#414042"/><path d="m11.9 15 1.7.7h-.1zm8 3h.1z" class="st50"/><path d="m11.9 15 1.7.7h-.1zm8 3h.1zM12 15l1.8.7h-.1zm7.9 3h.1z" class="st50"/><path d="m12 15 1.8.7h-.1zm7.9 2.9.1.1z" class="st50"/><path d="m12.1 15 1.8.7h-.1zm7.7 2.9.1.1z" style="fill-rule:evenodd;clip-rule:evenodd;fill:#383839"/><path d="m12.2 15 1.8.7h-.1zm7.6 2.9.1.1zM12.3 15l1.9.7h-.1zm7.5 2.8.1.1zc0 .1 0 0 0 0" class="st52"/><path d="m12.3 15 1.9.7h-.1zm7.5 2.8.2.1zM12.4 15l1.9.7h-.1zm7.4 2.8.2.1z" class="st52"/><path d="m12.5 15 2 .8h-.1zm7.2 2.7.2.1z" style="fill-rule:evenodd;clip-rule:evenodd;fill:#2e2e2f"/><path d="m12.5 15 2 .8h-.1zm7.2 2.7.2.1zM12.6 15l2 .8h-.1zm7.1 2.6.2.1zq0 .15 0 0" class="st0"/><path d="m12.7 15 2.1.8h-.1zm6.9 2.6.2.1zq.15 0 0 0" class="st0"/><path d="m12.8 15 2.1.8h-.1zm6.8 2.6.2.1zM12.9 15l2.2.8H15zm6.7 2.5.2.1zc0 .1 0 0 0 0" class="st54"/><path d="m12.9 15 2.2.8H15zm6.6 2.5.2.1zc.1 0 0 0 0 0" class="st54"/><path d="m13 15 2.2.8h-.1zm6.5 2.4.3.1zq0 .15 0 0" class="st54"/><path d="m13.1 15 2.3.9h-.1zm6.3 2.4.3.1zq.15 0 0 0" style="fill-rule:evenodd;clip-rule:evenodd;fill:#1c1b1c"/><path d="m13.2 15 2.3.9h-.1zm6.2 2.3.3.1zq0 .15 0 0" class="st56"/><path d="m13.3 15 2.4.9h-.1zc-.1 0 0 0 0 0m6 2.3.3.1zq.15 0 0 0M13.4 15l2.4.9h-.1zm5.9 2.3.4.1z" class="st56"/><path d="m13.5 15 2.5 1h-.1zc-.1 0 0 0 0 0m5.7 2.2.4.2z" class="st56"/><path d="m13.6 15 2.5 1h-.2l-2.4-1zm5.5 2.1.5.2zc.1.1 0 .1 0 0" style="fill-rule:evenodd;clip-rule:evenodd;fill:#0b0a0b"/><path d="m13.7 15.1 2.6 1h-.2l-2.5-1c0-.1.1-.1.1 0m5.3 2 .5.2zq.15 0 0 0" class="st45"/><path d="m13.8 15.1 2.6 1h-.1l-2.6-1zm5.1 1.9.6.2zc.1.1.1 0 0 0" class="st45"/><path d="m19.5 17.2-.6-.2c-.6-.4-1.5-.7-2.5-1l-2.6-1c.6.1 1.3.2 2.1.5.9.2 1.5.4 1.9.7.8.4 1.4.7 1.7 1" class="st45"/><path d="M19.2 7.4h-.7v.1h.7c.3 0 .4.1.5.1.1.1.2.2.3.2s.1 0 .1-.1c-.3-.2-.5-.3-.9-.3" style="fill-rule:evenodd;clip-rule:evenodd;fill:#d1d3d4"/><path d="M19.4 8.8c-.4.3-.8.4-1 .4 0 0-.1 0 0 .1l.1.1c.1 0 .3 0 .5-.1.3-.1.5-.2.6-.4z" class="st2"/><path d="M18.4 9.4s0-.1-.1-.1h-.6c-.1 0 0 .1.1.1zm.1-1.3c.1-.1 0-.1-.2-.1-.4.1-.8.3-1 .5l-.1.1s.1 0 .3-.1.5-.3 1-.4" class="st12"/><path d="m18 10.3-.3.1-.7.1c-.1 0-.1 0-.2.1s0 .1 0 .1q.6.15 1.2-.3c.1-.1.2-.1.2-.2z" class="st2"/><path d="M14.7 10.8c.2-.1.2-.2.1-.2l-.6-.3c.2.2.2.3.2.5l-.6.8c-.4.5-.7.8-.7.9s0 0 .2-.3c.1-.1.3-.4.7-.7z" class="st45"/><path d="M13.6 14q-1.05-.15-1.5 0c-.2 0-.3.1-.3.2s.8.2 2.3.2c1.3.2 2.5.6 3.5 1.1.4.2.7.3.8.3s0-.1-.2-.2c-.7-.4-1.4-.7-2.3-1-1.1-.4-1.8-.6-2.3-.6" class="st2"/><path d="m12.2 13.6.4-.4c-.2.2-.4.3-.5.3l-1 .3zm6.2-3.3c.4-.3.7-.5.7-.5.1-.1-.2 0-.8.4.2 0 .2 0 .1.1" class="st45"/><path d="M18.3 15.8c-.1 0 .1.1.6.4.5.4.8.5.7.4s-.3-.3-.6-.5c-.4-.2-.6-.3-.7-.3" class="st31"/><path d="M19.7 16.7c-.1 0 0 0 .1.2.2.3.4.5.5.6.1.2.2.5.3 1 .1.3.2.4.2.4l.1-.1c.1-.4 0-.8-.4-1.3zm1.9 3.6c.1 0 0 0 0-.1l-.6-.9c-.1-.1-.2-.2-.2-.1-.1.1-.1.2 0 .4 0 .1.1.2.3.4.1.2.3.3.5.3" class="st2"/><path d="m22.7 21.3-.2-.1c-.1 0 0 .1.1.2s.2.2.3.2c.1.1.1 0-.2-.3" class="st8"/><path d="M8.7 17.6c-1 .8-1.8 1.4-2.7 1.9-.9.6-1.8 1-2.7 1.3.7-.1 1.6-.5 2.7-1.1 1-.6 1.8-1.3 2.7-2.1" class="st5"/><path d="M3.3 20.4c.1-.1.1-.1 0-.1s-.2 0-.3-.1-.1-.1-.1 0 0 .2.2.3h.2z" class="st2"/><path d="M2.2 19.7c-.2.2-.3.5-.4.8-.1.2 0 .3.1.4l.6.1.5-.2c.1-.1.1-.1 0-.1-.4 0-.6-.1-.8-.3v-.5c.1-.3.1-.5.1-.6.1.1 0 .2-.1.4" class="st45"/><path d="M13.1 3.8c-.3.4-.4.9-.3 1.3s.3.7.7.9.9.3 1.7.2q1.5-.15 1.5-.6c.1-.6-.2-1.2-.6-1.8-.5-.7-1.1-1-1.7-.9-.5.1-.9.4-1.3.9m1.9.1v.2s-.1.1-.2.1c-.2 0-.3 0-.4-.1-.1 0-.1-.1-.1-.2s.1-.2.2-.3h.3c.1.1.2.2.2.3m.5 1.7h.3c.1 0 .1.1.1.1 0 .1-.2.1-.4.1h-.4c-.1 0-.1-.1-.1-.1.2-.1.3-.1.5-.1m-1.6-2.3q.3-.15 0 0c0 .2-.2.5-.3.7-.2.5-.3.9-.1 1.1.1.2.3.4.5.5.5.2.8.3 1.1.3s.6 0 .9-.1h.2c-.1.2-.4.3-1 .3-.6.1-1 0-1.4-.1-.3-.1-.6-.3-.8-.6 0-.2-.1-.4-.1-.6 0-.4.2-.8.6-1.1z" class="st0"/><path d="M15 4.1v-.2q0-.15-.3-.3h-.3c-.1.1-.2.2-.2.3s0 .2.1.2c.1.1.3.1.4.1.2 0 .3-.1.3-.1" class="st2"/><path d="M15.8 5.6h-.3c-.2 0-.4 0-.5.1 0 .1 0 .1.1.1h.4c.3 0 .4-.1.4-.1z" style="fill-rule:evenodd;clip-rule:evenodd;fill:#eef3f6"/><path d="M14 3.3q.15-.15 0 0l-.5.4c-.4.4-.6.7-.6 1.1 0 .2.1.4.2.6.2.2.4.4.8.6.3.1.8.2 1.4.1s.9-.2 1-.3h-.2c-.3.1-.6.1-.9.1s-.7-.1-1.1-.3c-.2-.1-.4-.3-.5-.5s-.1-.6.1-1.1c.1-.2.2-.5.3-.7" class="st60"/><path d="M14 3.3q.15-.15 0 0l-.5.4c-.4.4-.6.7-.6 1.1 0 .2.1.4.2.6.2.2.4.4.8.6.3.1.8.2 1.4.1s.9-.2 1-.3h-.2c-.3.1-.6.1-.9.1s-.7-.1-1.1-.3c-.2-.1-.4-.3-.5-.5s-.1-.6.1-1.1c.1-.2.2-.5.3-.7" class="st60"/><path d="M14 3.3q.15-.15 0 0l-.5.4c-.4.4-.6.7-.6 1.1 0 .2.1.4.2.6.2.2.4.4.8.6.3.1.8.2 1.4.1s.9-.2 1-.3h-.2c-.3.1-.6.1-.9.1s-.7-.1-1.1-.3c-.2-.1-.4-.3-.5-.5s-.1-.6.1-1.1c.1-.2.2-.5.3-.7" class="st60"/><path d="M14 3.3q.15-.15 0 0l-.5.4c-.4.4-.6.7-.6 1.1 0 .2.1.4.2.6.2.2.4.4.8.6.3.1.8.2 1.4.1s.9-.2 1-.3h-.2c-.3.1-.6.1-.9.1s-.7-.1-1.1-.3c-.2-.1-.4-.3-.5-.5s-.1-.6.1-1.1c.1-.2.2-.5.3-.7" class="st60"/><path d="M14 3.3q.15-.15 0 0l-.5.4c-.4.4-.6.7-.6 1.1 0 .2.1.4.2.6.2.2.4.4.8.6.3.1.8.2 1.4.1s.9-.2 1-.3h-.2c-.3.1-.6.1-.9.1s-.7-.1-1.1-.3c-.2-.1-.4-.3-.5-.5s-.1-.6.1-1.1c.1-.2.2-.5.3-.7" class="st3"/><path d="M14 3.3q.15-.15 0 0l-.5.4c-.4.4-.6.7-.6 1.1 0 .2.1.4.2.6.2.2.4.4.8.6.3.1.8.2 1.4.1s.9-.2 1-.3h-.2c-.3.1-.6.1-.9.1s-.7-.1-1.1-.3c-.2-.1-.4-.3-.5-.5s-.1-.6.1-1.1c.1-.2.2-.5.3-.7" class="st3"/><path d="M14 3.3q.15-.15 0 0l-.5.4c-.4.4-.6.7-.6 1.1 0 .2.1.4.2.6.2.2.4.4.8.6.3.1.8.2 1.4.1s.9-.2 1-.3h-.2c-.3.1-.6.1-.9.1s-.7-.1-1.1-.3c-.2-.1-.4-.3-.5-.5s-.1-.6.1-1.1c.1-.2.2-.5.3-.7" class="st4"/><path d="M14 3.3q.15-.15 0 0l-.5.4c-.4.4-.6.7-.6 1.1 0 .2.1.4.2.6.2.2.4.4.8.6.3.1.8.2 1.4.1s.9-.2 1-.3h-.2c-.3.1-.6.1-.9.1s-.7-.1-1.1-.3c-.2-.1-.4-.3-.5-.5s-.1-.6.1-1.1c.1-.2.2-.5.3-.7" class="st4"/><path d="M14 3.3q.15-.15 0 0l-.5.4c-.4.4-.6.7-.6 1.1 0 .2.1.4.2.6.2.2.4.4.8.6.3.1.8.2 1.4.1s.9-.2 1-.3h-.2c-.3.1-.6.1-.9.1s-.7-.1-1.1-.3c-.2-.1-.4-.3-.5-.5s-.1-.6.1-1.1c.1-.2.2-.5.3-.7" class="st4"/><path d="M13 5.3c0-.1 0-.1-.1-.2v-.3c0-.4.2-.8.6-1.1l.4-.4c.1-.1.2-.1.1 0-.1.2-.2.4-.3.7-.2.5-.3.9-.1 1.1.1.2.3.4.5.5.5.2.8.3 1.1.3s.6 0 .9-.1h.2c-.1.2-.4.3-1 .3-.6.1-1 0-1.4-.1-.3-.1-.6-.3-.8-.6 0 0 0-.1-.1-.1" class="st5"/><path d="M13 5v-.2c0-.4.2-.8.6-1.1l.4-.4c.1-.1.2-.1.1 0-.1.2-.2.4-.3.7-.2.5-.3.9-.1 1.1.1.2.3.4.5.5.5.2.8.3 1.1.3s.6 0 .9-.1h.2c-.1.2-.4.3-1 .3-.6.1-1 0-1.4-.1-.3-.1-.6-.3-.8-.6-.1-.1-.2-.2-.2-.4" class="st5"/><path d="M13 5c0-.1 0-.1-.1-.2 0-.4.2-.8.6-1.1l.4-.4c.1-.1.2-.1.1 0-.1.2-.2.4-.3.7-.2.5-.3.9-.1 1.1.1.2.3.4.5.5.5.2.8.3 1.1.3s.6 0 .9-.1h.2c-.1.2-.4.3-1 .3-.6.1-1 0-1.4-.1-.3-.1-.5-.3-.7-.4-.1-.2-.1-.4-.2-.6" class="st6"/><path d="M13 5c0-.1-.1-.2-.1-.2 0-.4.2-.7.6-1.1l.4-.4c.1-.1.2-.1.1 0-.1.2-.2.4-.3.7-.2.5-.3.9-.1 1.1.1.2.3.4.5.5.5.2.8.3 1.1.3s.6 0 .9-.1h.2c-.1.2-.4.3-1 .3-.6.1-1 0-1.4-.1-.2-.1-.4-.2-.6-.4q-.15-.15-.3-.6" class="st6"/><path d="M13 5c0-.1-.1-.2-.1-.3 0-.4.2-.7.6-1l.4-.4c.1-.1.2-.1.1 0-.1.2-.2.4-.3.7-.2.5-.3.9-.1 1.1.1.2.3.4.5.5.5.2.8.3 1.1.3s.6 0 .9-.1h.2c-.1.2-.4.3-1 .3-.6.1-1 0-1.4-.1-.2-.1-.4-.2-.5-.3-.2-.2-.3-.4-.4-.7" class="st6"/><path d="M13 5c0-.1-.1-.2-.1-.4 0-.3.2-.7.5-1l.4-.4c.1-.1.2-.1.1 0-.1.2-.2.4-.3.7-.2.5-.3.9-.1 1.1.1.2.3.4.5.5.5.2.8.3 1.1.3s.6 0 .9-.1h.2c-.1.2-.4.3-1 .3-.6.1-1 0-1.4-.1-.2-.1-.3-.2-.5-.3 0-.1-.2-.3-.3-.6" class="st7"/><path d="M13.1 5c-.1-.1-.1-.3-.1-.4 0-.3.2-.6.5-.9l.4-.4c.1-.1.2-.1.1 0-.1.2-.2.4-.3.7-.2.5-.3.9-.1 1.1.1.2.3.4.5.5.5.2.8.3 1.1.3s.6 0 .9-.1h.2c-.1.2-.4.3-1 .3-.6.1-1 0-1.4-.1-.1-.1-.3-.1-.4-.2-.2-.2-.3-.5-.4-.8" class="st7"/><path d="M13.1 5c-.1-.1-.1-.3-.1-.4 0-.3.2-.6.5-.9l.4-.4c.1-.1.2-.1.1 0-.1.2-.2.4-.3.7-.2.5-.3.9-.1 1.1.1.2.3.4.5.5.5.2.8.3 1.1.3s.6 0 .9-.1h.2c-.1.2-.4.3-1 .3-.6.1-1 0-1.4-.1-.1 0-.2-.1-.3-.2-.2-.2-.4-.5-.5-.8" class="st8"/><path d="M13.1 5c-.1-.2-.1-.3-.1-.5.1-.3.2-.5.5-.8l.4-.4c.1-.1.2-.1.1 0-.1.2-.2.4-.3.7-.2.5-.3.9-.1 1.1.1.2.3.4.5.5.5.2.8.3 1.1.3s.6 0 .9-.1h.2c-.1.2-.4.3-1 .3-.6.1-1 0-1.4-.1-.1 0-.2-.1-.3-.1-.2-.3-.4-.6-.5-.9" class="st8"/><path d="M13.1 5c0-.2-.1-.4-.1-.5.1-.3.2-.5.5-.8l.4-.4c.1-.1.2-.1.1 0-.1.2-.2.4-.3.7-.2.5-.3.9-.1 1.1.1.2.3.4.5.5.5.2.8.3 1.1.3s.6 0 .9-.1h.2c-.1.2-.4.3-1 .3-.6.1-1 0-1.4-.1-.1 0-.1-.1-.2-.1-.2-.2-.4-.6-.6-.9" class="st8"/><path d="M13.1 5c0-.2-.1-.4-.1-.6.1-.2.2-.5.5-.7l.4-.4c.1-.1.2-.1.1 0-.1.2-.2.4-.3.7-.2.5-.3.9-.1 1.1.1.2.3.4.5.5.5.2.8.3 1.1.3s.6 0 .9-.1h.2c-.1.2-.4.3-1 .3-.6.1-1 0-1.4-.1-.1 0-.1 0-.1-.1-.3-.2-.5-.5-.7-.9" class="st9"/><path d="M13.2 5c-.1-.2-.2-.4-.2-.6.1-.2.2-.5.5-.7l.4-.4c.1-.1.2-.1.1 0-.1.2-.2.4-.3.7-.2.5-.3.9-.1 1.1.1.2.3.4.5.5.5.2.8.3 1.1.3s.6 0 .9-.1h.2c-.1.2-.4.3-1 .3-.6.1-1 0-1.4-.1h-.1c-.3-.3-.5-.6-.6-1" class="st9"/><path d="M13.2 5c-.1-.2-.1-.4-.1-.6.1-.2.2-.4.5-.6l.4-.4c.1-.1.2-.1.1 0-.1.2-.2.4-.3.7-.2.5-.3.9-.1 1.1.1.2.3.4.5.5.5.2.8.3 1.1.3s.6 0 .9-.1h.2c-.1.2-.4.3-1 .3-.6.1-1 0-1.4-.1-.4-.4-.7-.7-.8-1.1" class="st10"/><path d="M13.2 5c-.1-.2-.1-.4-.1-.7.1-.2.2-.4.4-.6l.4-.4c.1-.1.2-.1.1 0-.1.2-.2.4-.3.7-.2.5-.3.9-.1 1.1.1.2.3.4.5.5.5.2.8.3 1.1.3s.6 0 .9-.1h.2c-.1.2-.4.3-1 .3-.6.1-1 0-1.3-.1-.4-.2-.6-.6-.8-1" class="st10"/><path d="M13.2 5c-.1-.2-.1-.5-.1-.7.1-.2.2-.4.4-.6l.4-.4c.1-.1.2-.1.1 0-.1.2-.2.4-.3.7-.2.5-.3.9-.1 1.1.1.2.3.4.5.5.5.2.8.3 1.1.3s.6 0 .9-.1h.2c-.1.2-.4.3-1 .3-.5 0-.9 0-1.3-.1-.3-.2-.6-.6-.8-1" class="st10"/><path d="M13.2 4.9c-.1-.2-.1-.5-.1-.7.1-.2.2-.3.4-.5l.4-.4c.1-.1.2-.1.1 0-.1.2-.2.4-.3.7-.2.5-.3.9-.1 1.1.1.2.3.4.5.5.5.2.8.3 1.1.3s.6 0 .9-.1h.2c-.1.2-.4.3-1 .3-.5 0-.9 0-1.2-.1-.4-.2-.7-.6-.9-1.1" class="st11"/><path d="M13.3 4.9c-.1-.3-.1-.5-.1-.8.1-.2.2-.3.4-.5l.4-.4c.1-.1.2-.1.1 0-.1.2-.2.4-.3.7-.2.5-.3.9-.1 1.1.1.2.3.4.5.5.5.2.8.3 1.1.3s.6 0 .9-.1h.2c-.1.2-.4.3-1 .3-.5 0-.9 0-1.2-.1-.5-.1-.8-.5-.9-1" class="st11"/><path d="M13.3 4.9c-.1-.3-.1-.5-.1-.8.1-.2.2-.3.4-.4l.4-.4c.1-.1.2-.1.1 0-.1.2-.2.4-.3.7-.2.5-.3.9-.1 1.1.1.2.3.4.5.5.5.2.8.3 1.1.3s.6 0 .9-.1h.2c-.1.2-.4.3-1 .3h-1.1c-.5-.3-.8-.7-1-1.2" class="st12"/><path d="M13.3 4.9c-.1-.3-.1-.5-.1-.8.1-.1.2-.3.3-.4l.4-.4c.1-.1.2-.1.1 0-.1.2-.2.4-.3.7-.2.5-.3.9-.1 1.1.1.2.3.4.5.5.5.2.8.3 1.1.3s.6 0 .9-.1h.2c-.1.2-.4.3-1 .3h-1.1q-.6-.45-.9-1.2" class="st12"/><path d="M13.3 4.9c-.1-.3-.1-.6-.1-.8.1-.1.2-.3.3-.4l.4-.4c.1-.1.2-.1.1 0-.1.2-.2.4-.3.7-.2.5-.3.9-.1 1.1.1.2.3.4.5.5.5.2.8.3 1.1.3s.6 0 .9-.1h.2c-.1.2-.4.3-1 .3h-1c-.4-.3-.8-.7-1-1.2" class="st12"/><path d="M13.3 4.9c-.1-.3-.1-.6-.1-.9l.3-.3.4-.4c.1-.1.2-.1.1 0-.1.2-.2.4-.3.7-.2.5-.3.9-.1 1.1.1.2.3.4.5.5.5.2.8.3 1.1.3s.6 0 .9-.1h.2c-.1.2-.4.3-1 .3h-1c-.4-.2-.8-.7-1-1.2" class="st13"/><path d="M13.4 4.9c-.1-.3-.1-.6-.1-.9l.3-.3.4-.4c.1-.1.2-.1.1 0-.1.2-.2.4-.3.7-.2.5-.3.9-.1 1.1.1.2.3.4.5.5.5.2.8.3 1.1.3s.6 0 .9-.1h.2c-.1.2-.4.3-1 .3h-.9c-.6-.2-.9-.7-1.1-1.2" class="st13"/><path d="M13.4 4.9c-.1-.3-.1-.6-.1-.9l.3-.3.4-.4c.1-.1.2-.1.1 0-.1.2-.2.4-.3.7-.2.5-.3.9-.1 1.1.1.2.3.4.5.5.5.2.8.3 1.1.3s.6 0 .9-.1h.2c-.1.2-.4.3-1 .3h-.8c-.6-.2-1-.7-1.2-1.2" class="st13"/><path d="M13.4 4.9c-.1-.3-.2-.6-.1-.9.1-.1.1-.2.2-.3l.4-.4c.1-.1.2-.1.1 0-.1.2-.2.4-.3.7-.2.5-.3.9-.1 1.1.1.2.3.4.5.5.5.2.8.3 1.1.3s.6 0 .9-.1h.2c-.1.2-.4.3-1 .3h-.8c-.5-.2-.9-.6-1.1-1.2" class="st14"/><path d="M13.4 4.9c-.1-.3-.2-.6-.1-1l.2-.2.4-.4c.1-.1.2-.1.1 0-.1.2-.2.4-.3.7-.2.5-.3.9-.1 1.1.1.2.3.4.5.5.5.2.8.3 1.1.3s.6 0 .9-.1h.2c-.1.2-.4.3-1 .3h-.7q-.9-.3-1.2-1.2" class="st14"/><path d="M13.4 4.9c-.1-.3-.2-.7-.1-1l.2-.2.4-.4c.1-.1.2-.1.1 0-.1.2-.2.4-.3.7-.2.5-.3.9-.1 1.1.1.2.3.4.5.5.5.2.8.3 1.1.3s.6 0 .9-.1h.2c-.1.2-.4.3-1 .3h-.7c-.5-.2-1-.6-1.2-1.2" class="st15"/><path d="M13.5 4.9c-.1-.3-.2-.7-.1-1 0-.1.1-.1.2-.2l.4-.4c.1-.1.2-.1.1 0-.1.2-.2.4-.3.7-.2.5-.2.8-.2 1-.1 0-.1-.1-.1-.1m1.2 1.3c-.4-.2-.8-.5-1-.9.1.2.2.3.4.3.5.2.8.3 1.1.3s.6 0 .9-.1h.2c-.1.2-.4.3-1 .3-.2.1-.4.1-.6.1" class="st15"/><path d="M13.5 4.9c-.1-.3-.2-.7-.1-1l.1-.1.4-.4c.1-.1.2-.1.1 0-.1.2-.2.4-.3.7-.2.3-.2.6-.2.8m1.2 1.3c-.3-.2-.7-.4-.9-.7.1.1.2.1.3.2.5.2.8.3 1.1.3s.6 0 .9-.1h.2c-.1.2-.4.3-1 .3-.2-.1-.4 0-.6 0" class="st15"/><path d="M13.5 4.9c-.1-.3-.2-.7-.1-1l.1-.1.4-.4c.1-.1.2-.1.1 0-.1.2-.2.4-.3.7s-.2.6-.2.8m1.3 1.3q-.6-.15-.9-.6c.1 0 .1.1.2.1.5.2.8.3 1.1.3s.6 0 .9-.1h.2c-.1.2-.4.3-1 .3-.2-.1-.3 0-.5 0" class="st16"/><path d="M13.5 4.8c-.1-.3-.1-.7-.1-1l.1-.1.4-.4c.1-.1.2-.1.1 0-.1.2-.2.4-.3.7s-.2.6-.2.8m1.4 1.4q-.6-.3-.9-.6s.1 0 .1.1c.5.2.8.3 1.1.3s.6 0 .9-.1h.2c-.1.2-.4.3-1 .3-.2-.1-.3 0-.4 0" class="st16"/><path d="M13.5 4.8c-.1-.3-.1-.7-.1-1l.1-.1.4-.4c.1-.1.2-.1.1 0-.1.2-.2.4-.3.7s-.2.6-.2.8m1.4 1.4c-.3-.1-.7-.3-.9-.5.5.2.8.3 1.1.3s.6 0 .9-.1h.2c-.1.2-.4.3-1 .3 0-.1-.2-.1-.3 0" class="st17"/><path d="M13.5 4.7c-.1-.3-.1-.7 0-1l.4-.4c.1-.1.2-.1.1 0-.1.2-.2.4-.3.7s-.2.5-.2.7M15 6.1c-.3-.1-.7-.3-.9-.5.5.2.8.3 1.1.3s.6 0 .9-.1h.2c-.1.2-.4.3-1 .3z" class="st17"/><path d="M13.5 4.6q-.15-.45 0-.9l.4-.4c.1-.1.2-.1.1 0-.1.2-.2.4-.3.7s-.2.5-.2.6m1.6 1.5c-.4-.1-.7-.2-.9-.5.4.2.8.3 1.1.3s.6 0 .9-.1h.2c-.1.2-.4.3-1 .3z" class="st17"/><path d="M13.5 4.6q-.15-.45 0-.9l.4-.4c.1-.1.2-.1.1 0-.1.2-.2.4-.3.7-.1.2-.1.4-.2.6m1.6 1.5c-.4-.1-.7-.2-1-.5.4.2.7.3 1 .3s.6 0 .9-.1h.2c-.1.2-.4.3-1 .3z" class="st18"/><path d="M13.5 4.5q-.15-.45 0-.9l.4-.3c.1-.1.2-.1.1 0-.1.2-.2.4-.3.7-.1.2-.1.4-.2.5m1.7 1.6c-.4 0-.7-.2-1-.4.4.2.7.2.9.2.3 0 .6 0 .9-.1h.2c0 .2-.3.3-1 .3q.15 0 0 0" class="st18"/><path d="M13.5 4.5c-.1-.3 0-.6 0-.9l.4-.3c.1-.1.2-.1.1 0-.1.2-.2.4-.3.7-.1.2-.1.4-.2.5m1.8 1.6c-.4 0-.7-.2-1-.4.3.1.6.2.9.2s.6 0 .9-.1h.2c-.1.2-.4.3-1 .3" class="st19"/><path d="M13.6 4.5v-.8l.4-.3c.1-.1.2-.1.1 0-.1.2-.2.4-.3.7-.2.1-.2.2-.2.4m1.9 1.6c-.4 0-.8-.1-1.1-.3.3.1.6.2.8.2.3 0 .6 0 .9-.1h.2c-.1 0-.4.2-.8.2" class="st19"/><path d="M13.6 4.4c0-.3 0-.6.1-.8l.3-.3c.1-.1.2-.1.1 0-.1.2-.2.4-.3.7-.2.2-.2.3-.2.4m2 1.7c-.4 0-.8-.1-1.1-.3.3.1.5.1.7.2.3 0 .6 0 .9-.1h.2c-.1 0-.3.1-.7.2" class="st19"/><path d="M13.6 4.4c0-.3 0-.5.1-.8l.3-.2c.1-.1.2-.1.1 0-.1.2-.2.4-.3.7-.1 0-.2.2-.2.3M15.8 6c-.4.1-.9 0-1.3-.2.2.1.4.1.6.1.3 0 .6 0 .9-.1h.2c0 .1-.1.2-.4.2" class="st20"/><path d="M13.6 4.3c0-.3 0-.5.1-.8l.3-.2c.1-.1.2-.1.1 0-.1.2-.2.4-.3.7-.1.1-.2.2-.2.3M16 6c-.5.1-.9.1-1.4-.1.2.1.4.1.5.1.3 0 .6 0 .9-.1h.2z" class="st20"/><path d="M13.6 4.3c0-.3 0-.5.1-.7l.2-.2c.1-.1.2-.1.1 0-.1.2-.2.4-.3.7 0 0-.1.1-.1.2m2.5 1.6c-.5.2-.9.1-1.3 0 .1 0 .3.1.4.1.3 0 .6 0 .9-.1h.2c-.1-.1-.1 0-.2 0" class="st21"/><path d="M13.6 4.2c0-.2 0-.5.1-.7l.2-.2c.1-.1.2-.1.1 0-.1.2-.2.4-.3.7 0 .1 0 .1-.1.2m2.6 1.7c-.5.2-.9.2-1.3 0h.2c.3 0 .6 0 .9-.1zc.1-.1 0 0 0 0" class="st21"/><path d="M13.7 4.1c0-.2 0-.5.1-.7l.2-.1c.1-.1.2-.1.1 0-.1.2-.2.4-.3.7zm2.5 1.7h-.1c-.3.1-.7.1-1 .1h.1c.3 0 .6 0 .9-.1zq.15 0 0 0" class="st21"/><path d="M13.7 4.1c0-.2.1-.4.1-.7l.1-.1c.1-.1.2-.1.1 0-.1.2-.2.5-.3.8m2.6 1.7s-.1 0-.1.1c-.4.1-.7.1-1 0 .3 0 .5 0 .8-.1z" class="st22"/><path d="M13.7 4c0-.2.1-.4.1-.6l.1-.1c.1-.1.2-.1.1 0-.1.2-.2.5-.3.7m2.5 1.8c-.3.1-.6.2-.8.1.2 0 .4-.1.7-.1z" class="st22"/><path d="M13.7 4c0-.2.1-.4.2-.6l.1-.1c.1-.1.2-.1.1 0-.2.2-.3.4-.4.7m2.5 1.8q-.15 0 0 0c-.2.1-.4.1-.6.1.2 0 .3-.1.5-.1z" class="st22"/><path d="M13.7 3.9c0-.2.1-.4.2-.6.1-.1.2-.1.1 0zm2.4 1.9c-.1 0-.2.1-.4.1.1 0 .2-.1.4-.1" class="st23"/><path d="M13.8 3.8c0-.2.1-.4.2-.5s.2-.1.1 0c-.2.2-.2.4-.3.5" class="st23"/><path d="M13.8 3.8c0-.2.1-.3.2-.5.1-.1.1 0 .1 0-.1.2-.2.3-.3.5" class="st24"/><path d="M13.9 3.7c0-.1.1-.3.2-.4.1 0 .1 0 0 .1-.1 0-.2.1-.2.3" class="st24"/><path d="M13.9 3.5c0-.1.1-.2.1-.3v.1c0 .1 0 .2-.1.2" class="st24"/><path d="M14 3.3s.1 0 0 0q.15 0 0 0" class="st25"/></svg>