<svg xmlns="http://www.w3.org/2000/svg" xml:space="preserve" viewBox="0 0 25 25"><linearGradient id="a" x1="23.316" x2="5.855" y1="287.146" y2="270.105" gradientTransform="scale(-1 1)rotate(-26.296 -581.058 195.3)" gradientUnits="userSpaceOnUse"><stop offset="0" style="stop-color:#fc950b"/><stop offset=".613" style="stop-color:#f9c438"/></linearGradient><path d="M11.6 8.1C6.5 6.4 2.8 8.7.8 11.3c-.1.1-.2 0-.2-.1.1-.7.4-2 .9-3.3 2.2-5 8.3-7.6 12-7.5s8 2.4 6.6 5.7c-1.4 3-3.2 3.8-8.5 2" style="fill:url(#a)"/><linearGradient id="b" x1="21.46" x2="11.791" y1="280.157" y2="294.393" gradientTransform="scale(-1 1)rotate(-26.296 -581.058 195.3)" gradientUnits="userSpaceOnUse"><stop offset="0" style="stop-color:#fc950b"/><stop offset="1" style="stop-color:#f9c438"/></linearGradient><path d="M7.8 8c0-.1-.1-.1-.1-.1C6 7.9 2.4 9.1.5 12.5 0 16.5 7.6 19 7.8 8" style="fill:url(#b)"/><linearGradient id="c" x1="25.303" x2="7.842" y1="284.667" y2="267.626" gradientTransform="scale(1 -1)rotate(-26.296 -615.77 132.301)" gradientUnits="userSpaceOnUse"><stop offset="0" style="stop-color:#fc950b"/><stop offset=".613" style="stop-color:#f9c438"/></linearGradient><path d="M13.4 16.9c5.1 1.7 8.7-.6 10.8-3.2.1-.1.2 0 .2.1-.1.7-.4 2-.9 3.3-2.2 5-8.3 7.6-12 7.5s-8-2.4-6.6-5.7c1.4-3 3.2-3.8 8.5-2" style="fill:url(#c)"/><linearGradient id="d" x1="23.448" x2="13.778" y1="277.677" y2="291.914" gradientTransform="scale(1 -1)rotate(-26.296 -615.77 132.301)" gradientUnits="userSpaceOnUse"><stop offset="0" style="stop-color:#fc950b"/><stop offset="1" style="stop-color:#f9c438"/></linearGradient><path d="M17.2 17c0 .1.1.1.1.1 1.7-.1 5.3-1.3 7.1-4.6.6-4-7-6.5-7.2 4.5" style="fill:url(#d)"/></svg>