<svg xmlns="http://www.w3.org/2000/svg" xmlns:xlink="http://www.w3.org/1999/xlink" xml:space="preserve" id="svg3430" x="0" y="0" version="1.1" viewBox="0 0 25 25"><style>.st5{fill:#fff}</style><g id="g3438" transform="matrix(1.25 0 0 -1.25 -4.4 394.299)"><g id="g3440"><defs><path id="SVGID_1_" d="M4.3 305.4c0-2.7 4.1-4.8 9.2-4.8s9.2 2.2 9.2 4.8c0 2.7-4.1 4.8-9.2 4.8-5.1.1-9.2-2.1-9.2-4.8"/></defs><clipPath id="SVGID_00000050631103799385109680000010615816351178335367_"><use xlink:href="#SVGID_1_" style="overflow:visible"/></clipPath><g id="g3442" style="clip-path:url(#SVGID_00000050631103799385109680000010615816351178335367_)"><g id="g3448"><g id="g3450"><radialGradient id="path3462_00000115487678619645897990000007487766166861938366_" cx="3.07" cy="295.563" r=".033" gradientTransform="matrix(453.8224 0 0 -453.8224 -1383.486 134441.828)" gradientUnits="userSpaceOnUse"><stop offset="0" style="stop-color:#aeb2d5"/><stop offset=".3" style="stop-color:#aeb2d5"/><stop offset=".75" style="stop-color:#484c89"/><stop offset="1" style="stop-color:#484c89"/></radialGradient><path id="path3462" d="M4.3 305.4c0-2.7 4.1-4.8 9.2-4.8s9.2 2.2 9.2 4.8c0 2.7-4.1 4.8-9.2 4.8-5.1.1-9.2-2.1-9.2-4.8" style="fill:url(#path3462_00000115487678619645897990000007487766166861938366_)"/></g></g></g></g><g id="g3464"><defs><path id="SVGID_00000155847298039260126700000018111067433971400090_" d="M1.5 298.7h24v13.5h-24z"/></defs><clipPath id="SVGID_00000178167769999345686520000015217454852567727799_"><use xlink:href="#SVGID_00000155847298039260126700000018111067433971400090_" style="overflow:visible"/></clipPath><g id="g3466" style="clip-path:url(#SVGID_00000178167769999345686520000015217454852567727799_)"><g id="g3472" transform="translate(288 27.36)"><path id="path3474" d="M-274.5 273.6c4.9 0 8.9 2 8.9 4.5s-4 4.5-8.9 4.5-8.9-2-8.9-4.5c.1-2.5 4-4.5 8.9-4.5" style="fill:#777bb3"/></g></g></g><g id="g3476"><defs><path id="SVGID_00000097499875734042157300000000353177869913250730_" d="M1.5 298.7h24v13.5h-24z"/></defs><clipPath id="SVGID_00000054225495133596008460000017336160826549060263_"><use xlink:href="#SVGID_00000097499875734042157300000000353177869913250730_" style="overflow:visible"/></clipPath><g id="g3478" style="clip-path:url(#SVGID_00000054225495133596008460000017336160826549060263_)"><g id="g3484" transform="translate(161.734 145.307)"><path id="path3486" d="M-152.4 159.6c.4 0 .7.1.9.2s.3.4.4.7 0 .6-.1.7-.4.2-.7.2h-.6l-.4-1.8zm-2.1-2.3q-.15 0 0 0l-.1.1.9 4.9.1.1h2c.6 0 1.1-.2 1.4-.5s.4-.8.3-1.4c0-.2-.1-.5-.2-.7s-.3-.4-.5-.6-.5-.4-.7-.4c-.3-.1-.6-.1-1-.1h-.8l-.2-1.2-.1-.1h-1.1z"/></g><g id="g3488" transform="translate(159.224 197.307)"><path id="path3490" d="M-150 109.3h.6c.4 0 .6-.1.7-.2q.15-.15 0-.6c-.1-.3-.2-.6-.3-.7-.2-.1-.5-.2-.8-.2h-.4zm1 1.2h-2c-.1 0-.2-.1-.2-.2l-.9-4.9v-.2s.1-.1.2-.1h1.1c.1 0 .2.1.2.2l.2 1.1h.7c.4 0 .8 0 1 .1.3.1.5.2.8.5.2.2.3.4.5.6.1.2.2.5.3.7q.15.9-.3 1.5c-.5.5-1 .7-1.6.7m-1.6-3h.6c.4 0 .7.1 1 .2.2.2.3.4.4.8s0 .6-.1.8c-.1.1-.4.2-.8.2h-.7zm1.6 2.8c.6 0 1.1-.2 1.3-.5.3-.3.4-.8.3-1.3 0-.2-.1-.5-.2-.7s-.3-.4-.4-.5c-.2-.2-.4-.3-.7-.4s-.6-.1-1-.1h-.9l-.3-1.3h-1.1l.9 4.9h2.1" class="st5"/></g><g id="g3492" transform="translate(311.583 116.307)"><path id="path3494" d="m-297.3 187.6-.1.1.4 2.1v.4s-.1.1-.5.1h-.8l-.5-2.7-.1-.1h-1.1v.1l.9 4.9.1.1h1.2v-.1l-.2-1.2h.8c.6 0 1-.1 1.3-.3.2-.2.3-.6.2-1.1l-.4-2.3-.1-.1h-1.1z"/></g><g id="g3496" transform="translate(293.661 271.057)"><path id="path3498" d="M-280 38h-1.1c-.1 0-.2-.1-.2-.2l-.9-4.9v-.2s.1-.1.2-.1h1c.1 0 .2.1.2.2l.5 2.6h.7c.3 0 .4-.1.4-.1V35l-.4-2.1v-.2c0-.1.1-.1.2-.1h1.1c.1 0 .2.1.2.2l.4 2.3q.15.75-.3 1.2c-.3.2-.7.4-1.4.4h-.7l.2 1.1v.2zm0-.2-.3-1.3h.9q.9 0 1.2-.3c.2-.2.3-.5.2-1l-.4-2.3h-1.1l.4 2.1c0 .2 0 .4-.1.5s-.3.1-.5.1h-.8l-.5-2.8h-1l.9 4.9h1.1" class="st5"/></g><g id="g3500" transform="translate(409.55 145.307)"><path id="path3502" d="M-392 159.6c.4 0 .7.1.9.2s.3.4.4.7 0 .6-.1.7-.4.2-.7.2h-.6l-.4-1.8zm-2.1-2.3-.1.1.9 4.9.1.1h2c.6 0 1.1-.2 1.4-.5s.4-.8.3-1.4c0-.2-.1-.5-.2-.7s-.3-.4-.5-.6-.5-.4-.7-.4c-.3-.1-.6-.1-1-.1h-.8l-.2-1.2-.1-.1h-1.1z"/></g><g id="g3504" transform="translate(407.04 197.307)"><path id="path3506" d="M-389.6 109.3h.6c.4 0 .6-.1.7-.2q.15-.15 0-.6c-.1-.3-.2-.6-.3-.7-.2-.1-.5-.2-.8-.2h-.4zm1 1.2h-2c-.1 0-.2-.1-.2-.2l-.9-4.9v-.2s.1-.1.2-.1h1.1c.1 0 .2.1.2.2l.2 1.1h.7c.4 0 .8 0 1 .1.3.1.5.2.8.5.2.2.3.4.5.6.1.2.2.5.3.7q.15.9-.3 1.5c-.4.5-.9.7-1.6.7m-1.5-3h.6c.4 0 .7.1 1 .2.2.2.3.4.4.8s0 .6-.1.8c-.1.1-.4.2-.8.2h-.7zm1.5 2.8c.6 0 1.1-.2 1.3-.5s.4-.8.3-1.3c0-.2-.1-.5-.2-.7s-.3-.4-.4-.5c-.2-.2-.4-.3-.7-.4s-.6-.1-1-.1h-.9l-.3-1.3h-1.1l.9 4.9h2.1" class="st5"/></g></g></g></g></svg>