<svg xmlns="http://www.w3.org/2000/svg" xml:space="preserve" viewBox="0 0 25 25"><path d="M2.8.5h19.3c1.3 0 2.3 1 2.3 2.3v19.3c0 1.3-1 2.3-2.3 2.3H2.8c-1.3 0-2.3-1-2.3-2.3V2.8C.5 1.5 1.5.5 2.8.5" style="fill:#3178c6"/><path d="M15.4 19.6v2.3c.4.2.8.3 1.4.4.5.1 1.1.1 1.6.1.6 0 1.1-.1 1.6-.2s1-.3 1.3-.5c.4-.2.7-.6.9-1s.3-.9.3-1.5c0-.4-.1-.8-.2-1.1s-.3-.6-.6-.9c-.2-.2-.5-.5-.9-.7-.3-.2-.7-.4-1.1-.6-.3-.1-.6-.3-.8-.4s-.5-.2-.6-.4c-.2-.1-.3-.3-.4-.4s-.1-.3-.1-.5 0-.3.1-.4.2-.2.4-.3.3-.2.6-.2c.2-.1.5-.1.7-.1h.6c.2 0 .4.1.7.1.2.1.4.1.6.2l.6.3v-2.2c-.4-.1-.7-.2-1.2-.3-.4-.1-.9-.1-1.5-.1s-1.1.1-1.6.2-.9.3-1.3.6-.7.6-.9 1-.3.9-.3 1.4q0 1.05.6 1.8c.4.5 1 .9 1.8 1.3.3.1.6.3.9.4s.5.3.7.4.4.3.5.4c.1.2.2.3.2.5s0 .3-.1.4l-.3.3c-.1.1-.3.2-.6.2-.2.1-.5.1-.8.1q-.75 0-1.5-.3c-.5.3-.9.1-1.3-.3m-4-5.8h3v-1.9H6v1.9h3v8.6h2.4z" style="fill-rule:evenodd;clip-rule:evenodd;fill:#fff"/></svg>