<svg xmlns="http://www.w3.org/2000/svg" xml:space="preserve" viewBox="0 0 25 25"><path d="M224.2-262.3c0-.3.2-.6.4-.8s.5-.3.8-.3.6.1.8.3.4.5.4.8-.1.6-.3.8-.5.4-.9.4-.7-.1-.9-.4c-.2-.2-.3-.5-.3-.8" style="fill:#fff" transform="translate(-1154.33 1375.29)scale(5.19226)"/><path d="M200.2-194.7c0-.3.2-.6.4-.8s.5-.3.8-.3.6.1.8.3.4.5.4.8-.1.6-.3.8-.5.4-.9.4-.7-.1-.9-.4c-.2-.2-.3-.5-.3-.8" style="fill:#265787" transform="translate(-520.324 532.513)scale(2.66418)"/><path d="M198.3-194.1c0 .1 0 .3.1.5.1.4.3.7.6 1s.6.6 1 .8.9.3 1.4.3.9-.1 1.4-.3c.4-.2.8-.4 1-.8.3-.3.5-.7.6-1 .1-.2.1-.4.1-.6v-.6c-.1-.4-.2-.7-.4-1s-.4-.6-.7-.8l-2.8-2.2c-.2-.1-.5-.1-.7 0s-.2.4 0 .5l1.2 1h-3.6c-.3 0-.6.2-.6.4-.1.2.1.5.5.5h1.8l-3.2 2.5c-.3.2-.4.6-.2.9s.6.3.9 0l1.8-1.4c-.2 0-.3.2-.2.3m4.5.6c-.4.4-.9.6-1.4.6-.6 0-1.1-.2-1.4-.6-.2-.2-.3-.4-.4-.6s-.1-.4-.1-.7c0-.2.1-.4.2-.6s.3-.4.4-.5c.4-.3.8-.4 1.3-.4s.9.2 1.3.4c.2.1.3.3.4.5s.2.4.2.6 0 .5-.1.7-.2.4-.4.6" style="fill:#ea7600" transform="translate(-520.324 532.513)scale(2.66418)"/></svg>